<svg width="194" height="40" viewBox="0 0 194 40" fill="none" xmlns="http://www.w3.org/2000/svg">
<g clip-path="url(#clip0_20063_2873)">
<g clip-path="url(#clip1_20063_2873)">
<path d="M185.784 38.038H46.551V39.9125H193.6V38.038H185.784Z"/>
<path d="M59.3844 12.7064H53.2454V27.9389H56.588V23.2796H59.3844C63.4472 23.2796 65.2597 21.104 65.2597 17.9916C65.2597 14.8585 63.4521 12.7064 59.3844 12.7064ZM59.34 20.4093H56.588V15.5768H59.34C60.9135 15.5768 61.7215 16.49 61.7215 17.9916C61.7215 19.4715 60.9135 20.4073 59.34 20.4073V20.4093Z"/>
<path d="M66.9841 12.5098V14.9245H70.1737V12.5098H66.9841ZM66.9841 16.622V27.9381H70.1737V16.622H66.9841Z"/>
<path d="M79.9155 16.556V18.0576C79.5204 17.4042 78.4091 16.5127 76.8139 16.5127C74.8047 16.5127 71.8997 18.1225 71.8997 22.279C71.8997 26.5004 74.8265 28.067 76.8573 28.067C79.064 28.067 79.9195 26.4788 79.9195 26.218V27.632C79.9195 29.4161 79.0897 30.1344 77.1892 30.1344C75.5949 30.1344 74.8739 29.481 74.4155 28.9811L72.441 30.222C73.2055 31.7236 75.0625 32.7253 77.4875 32.7253C79.6498 32.7253 83.1011 31.9194 83.1011 27.633V16.556H79.9155ZM77.5567 25.4987C76.1807 25.4987 75.0665 24.5196 75.0665 22.278C75.0665 20.0364 76.1807 19.079 77.5567 19.079C78.9544 19.079 80.0469 20.1024 80.0469 22.278C80.0469 24.4763 78.9544 25.4987 77.5567 25.4987Z"/>
<path d="M95.8611 22.6923C95.8611 18.1225 93.2613 16.5127 90.4441 16.5127C87.8226 16.5127 84.8296 18.1225 84.8296 22.344C84.8296 26.5004 87.8443 28.0886 90.4214 28.0886C93.1744 28.0886 94.9 26.9787 95.5579 24.6948H92.7812C92.4533 25.3472 91.7984 25.7388 90.5963 25.7388C89.0454 25.7388 88.1505 25.0205 87.9095 23.2788H95.8394C95.8579 23.0839 95.8651 22.888 95.8611 22.6923ZM87.9312 21.3216C88.1722 19.6674 89.0454 18.8615 90.4441 18.8615C91.9505 18.8615 92.7812 19.8406 92.8247 21.3216H87.9312Z"/>
<path d="M102.675 16.5127C100.273 16.5127 97.0447 18.1009 97.0447 22.3184C97.0447 26.4965 100.278 28.0847 102.675 28.0847C105.072 28.0847 108.311 26.4965 108.311 22.3184C108.311 18.1009 105.078 16.5127 102.675 16.5127ZM105.253 22.3184C105.253 24.5383 104.029 25.5174 102.675 25.5174C101.321 25.5174 100.098 24.5334 100.098 22.3184C100.098 19.9902 101.321 19.0711 102.675 19.0711C104.029 19.0711 105.253 19.9941 105.253 22.3223V22.3184Z"/>
<path d="M116.873 16.5127C114.776 16.5127 113.552 18.0792 113.225 18.8625V16.6209H110.036V27.9371H113.225V21.2556C113.334 20.5383 114.098 19.1459 115.695 19.1459C116.831 19.1459 117.726 19.7363 117.726 21.2999V27.9371H120.915V21.1257C120.914 17.6876 119.21 16.5127 116.873 16.5127Z"/>
<path d="M132.359 25.0637V12.7064H129.017V27.9389H139.328V25.0656L132.359 25.0637Z"/>
<path d="M146.141 16.5127C143.739 16.5127 140.511 18.1009 140.511 22.3184C140.511 26.4965 143.744 28.0847 146.141 28.0847C148.539 28.0847 151.778 26.4965 151.778 22.3184C151.778 18.1009 148.545 16.5127 146.141 16.5127ZM148.719 22.3184C148.719 24.5383 147.496 25.5174 146.141 25.5174C144.787 25.5174 143.564 24.5334 143.564 22.3184C143.564 19.9902 144.787 19.0711 146.141 19.0711C147.496 19.0711 148.719 19.9941 148.719 22.3223V22.3184Z"/>
<path d="M163.398 24.9989V21.2597C163.398 17.9308 162.022 16.5167 158.439 16.5167C155.424 16.5167 153.808 17.7349 153.589 20.1074H156.6C156.753 19.1057 157.517 18.8449 158.413 18.8449C159.204 18.8449 160.204 19.0191 160.204 20.499V20.5197C159.571 20.8907 158.392 20.9989 157.142 21.238C155.068 21.608 152.948 22.0439 152.948 24.6112C152.948 27.1136 154.825 28.0927 156.814 28.0927C159.481 28.0927 160.37 26.4198 160.55 26.1345V26.222C160.55 27.4403 161.664 28.0277 163.062 28.0277C163.521 28.0277 163.826 28.0061 164.22 27.8309V26.0213C163.704 25.978 163.398 25.674 163.398 24.9989ZM160.208 24.3682C159.99 24.7618 159.204 25.8265 157.696 25.8265C156.604 25.8265 156.145 25.1731 156.145 24.4764C156.145 23.7581 156.56 23.3448 157.627 23.084C158.653 22.8666 159.396 22.779 160.204 22.3657L160.208 24.3682Z"/>
<path d="M172.571 16.5127C170.474 16.5127 169.25 18.0792 168.923 18.8625V16.6209H165.734V27.9371H168.923V21.2556C169.032 20.5383 169.797 19.1459 171.393 19.1459C172.529 19.1459 173.424 19.7363 173.424 21.2999V27.9371H176.613V21.1257C176.612 17.6876 174.908 16.5127 172.571 16.5127Z"/>
<path d="M185.196 20.124H188.061C187.689 17.97 186.247 16.5127 183.233 16.5127C180.327 16.5127 178.602 17.7742 178.602 19.8849C178.602 21.4298 179.498 22.5614 182.075 23.1272L183.91 23.5208C184.761 23.695 185.111 23.9568 185.111 24.5442C185.111 25.2399 184.543 25.7408 183.277 25.7408C182.097 25.7408 181.4 25.2832 181.158 24.3258H178.232C178.56 26.8291 180.352 28.0906 183.257 28.0906C186.14 28.0906 188.303 26.9806 188.303 24.5875C188.303 22.2377 186.84 21.9543 184.808 21.4977L182.776 21.0382C181.986 20.864 181.575 20.5383 181.575 19.9725C181.575 19.2542 182.251 18.8625 183.254 18.8625C184.3 18.8625 184.933 19.1892 185.196 20.124Z"/>
<path d="M2.87586 13.5106C1.59175 12.9743 0.934876 12.3918 1.26183 12.066C1.33196 12.0188 2.0807 12.2058 2.92328 12.5089L4.44347 13.0442L4.83858 12.4616C5.04898 12.1585 5.84414 11.2739 6.63931 10.5044C7.42953 9.75853 7.73871 9.36296 7.31791 9.64242C6.9228 9.92188 6.12467 10.6914 5.53991 11.3152C4.95514 11.9676 4.34667 12.4803 4.15702 12.4803C3.31444 12.4567 0.811403 11.3389 0.601006 10.8724C0.484448 10.593 0.438022 10.3361 0.508155 10.2663C0.578287 10.1964 1.39716 10.4296 2.3553 10.779L4.1096 11.3851L5.60708 10.1964C6.42595 9.54402 7.52535 8.84537 8.03998 8.65841C8.57733 8.47243 8.8302 8.30908 8.64747 8.30908C8.0627 8.28547 5.98046 9.35804 5.04602 10.1502L4.18566 10.9236L2.17454 10.2948C1.05143 9.9455 0.0922993 9.6188 0.0221669 9.54894C-0.18823 9.33934 1.16898 8.33762 2.5252 7.68817C4.0454 6.9659 5.72956 6.75631 7.06307 7.08202C7.62413 7.22175 8.65339 7.47562 9.3557 7.64094L10.6398 7.92138L9.82292 8.08178L9.00504 8.2215L9.7765 8.26874C10.7643 8.29137 10.5717 8.59445 9.16803 9.31671C7.97578 9.92188 6.33804 11.5258 5.26234 13.1376C4.91168 13.6739 4.56003 14.1216 4.46718 14.1216C4.39705 14.0931 3.67103 13.8363 2.87586 13.5106ZM5.84711 8.05816C5.84711 7.94106 5.54287 7.82495 5.1685 7.82495C4.77339 7.82495 4.39705 7.94106 4.32691 8.05816C4.22814 8.19789 4.5136 8.29039 5.00453 8.29039C5.46978 8.29039 5.84711 8.19789 5.84711 8.05816Z"/>
<path d="M4.72371 39.7021C4.34934 39.3291 4.37305 38.4671 4.77014 38.1404C4.98152 37.9541 6.01079 37.8843 7.85794 37.9308L10.6415 38.0007L10.8519 38.6295C11.247 39.7946 10.8055 39.9815 7.74138 39.9815C5.91728 39.9815 4.91139 39.8884 4.72371 39.7021Z"/>
<path d="M13.2608 39.8182C13.004 39.5624 13.0741 38.4672 13.3783 38.1641C13.5423 38.0008 14.2673 37.8846 15.0151 37.8846H16.3723V36.6487C16.3723 35.5771 16.2785 35.3213 15.6937 34.7614C14.4303 33.5501 14.5479 32.0583 15.9278 32.0583C16.4424 32.0583 16.6765 32.199 16.8869 32.6408C17.2613 33.4566 17.8461 33.3641 18.3133 32.4086C18.8516 31.2662 18.8279 31.1963 17.7285 31.031C16.943 30.8749 16.1753 30.6405 15.4369 30.3314C14.7346 30.0283 13.4722 29.5392 12.6533 29.2362C8.65279 27.768 5.98677 23.0615 6.75823 18.8666C6.8985 18.1217 8.39597 14.0902 10.0801 9.89538C12.8874 2.86657 13.2144 2.18564 14.1034 1.36989C16.6528 -0.960251 20.6761 -0.214369 22.0056 2.81541C22.216 3.32808 22.8946 5.89045 23.5021 8.52268C24.0869 11.1559 24.6489 13.3699 24.7427 13.4427C24.9531 13.6287 28.2276 15.889 36.4381 21.552C40.1808 24.1616 43.478 26.538 43.7358 26.8657C44.04 27.2593 44.204 27.8211 44.204 28.4962C44.204 29.3818 44.0864 29.6612 43.4078 30.3373L42.6127 31.1294H37.8417C32.8356 31.1294 32.5077 31.0595 32.5077 30.0814C32.5077 29.1033 32.8593 29.0325 37.3271 29.0325C40.8584 29.0325 41.6308 28.9626 41.8649 28.6831C42.0516 28.4735 42.0753 28.2403 41.9578 28.1232C41.6071 27.8211 33.1863 22.042 33.0678 22.042C33.0203 22.042 32.9739 22.2752 32.9739 22.5783C32.9739 23.3931 32.1788 24.4883 31.266 24.9085C30.541 25.2578 29.4416 25.3021 22.6121 25.3021C18.2846 25.3021 14.6111 25.3719 14.4017 25.4418C14.1923 25.5117 14.0273 25.8354 14.0273 26.1414C14.0273 26.7702 15.0566 27.6322 16.6232 28.3063C17.1852 28.5395 22.4946 29.6573 28.4123 30.7761C34.3301 31.895 39.43 32.9203 39.757 33.0827C40.4356 33.3857 40.5759 34.5508 39.9674 34.9237C39.6869 35.0871 37.0673 34.6905 30.377 33.4094L21.1611 31.6617L20.5299 32.9665C20.1792 33.6888 19.5707 34.5508 19.1736 34.9001C18.5889 35.46 18.4713 35.7159 18.4713 36.6477C18.4713 37.5107 18.5889 37.8364 18.9395 38.0696C19.4542 38.3963 19.5707 39.2583 19.1262 39.7011C18.8279 40.0042 13.5423 40.1213 13.2608 39.8182ZM18.2906 5.79795C18.8052 5.33153 18.8279 4.84247 18.3133 4.28257C17.5418 3.42057 16.3723 3.88896 16.3723 5.07568C16.3723 6.10103 17.4954 6.52021 18.2906 5.79795Z"/>
<path d="M22.1837 39.8182C21.8716 39.5624 21.9565 38.4672 22.3259 38.1641C22.5808 37.9545 25.476 37.8846 33.6479 37.8846C43.2688 37.8846 44.7159 37.9309 45.0844 38.2566C45.6237 38.6768 45.6771 39.3056 45.198 39.7021C44.9422 39.9117 41.9916 39.9816 33.6202 39.9816C27.4337 39.9816 22.2686 39.9117 22.1837 39.8182Z"/>
<path d="M7.08632 7.12537C6.45414 6.86953 6.43142 6.70618 6.89864 6.05378C7.27301 5.49486 8.95717 4.95858 9.96076 5.07567C10.5682 5.14554 10.6384 5.23804 10.6384 5.96129C10.6384 6.59105 10.4981 6.82427 10.0536 7.05649C9.37896 7.40582 7.83999 7.42845 7.08632 7.12537Z"/>
</g>
</g>
<defs>
<clipPath id="clip0_20063_2873">
<rect width="194" height="40"/>
</clipPath>
<clipPath id="clip1_20063_2873">
<rect width="193.6" height="39.9952"/>
</clipPath>
</defs>
</svg>
