<svg width="172" height="40" viewBox="0 0 172 40" fill="none" xmlns="http://www.w3.org/2000/svg">
<g clip-path="url(#clip0_20063_2869)">
<path d="M60.0622 31.7928C59.4038 31.6061 58.8633 31.2818 58.313 30.7413C56.9962 29.4343 56.7505 27.3314 57.7136 25.5036C58.2148 24.5405 59.0795 23.8133 60.3374 23.2925C60.6715 23.1549 61.8802 22.7717 63.03 22.4474C64.1797 22.1231 65.1821 21.8283 65.2607 21.8086C65.3786 21.7693 65.3983 21.6514 65.3983 20.8358C65.3983 19.6958 65.2902 19.0079 65.0248 18.4085C64.7792 17.868 64.5335 17.6125 64.0028 17.3668C63.6687 17.2194 63.4624 17.19 62.7646 17.19C61.8606 17.19 61.4478 17.3177 60.868 17.7501L60.6027 17.9565L60.9467 18.1726C61.6542 18.6247 61.9687 19.1652 61.9687 19.9415C61.9687 20.4722 61.8409 20.8358 61.5264 21.2092C60.5437 22.3589 58.6963 22.0936 58.0084 20.6982C57.3991 19.4502 57.8217 17.7796 59.0206 16.7281C60.5143 15.4113 63.541 14.8217 65.6439 15.4408C66.8527 15.7945 67.8943 16.6396 68.3955 17.6518C68.9556 18.8016 68.9458 18.664 68.9949 24.059C69.0441 29.3164 69.0441 29.3164 69.4666 29.4245C69.7909 29.5031 70.0661 29.3557 70.1742 29.0511C70.2331 28.8742 70.2724 28.206 70.2724 27.2331V25.7001H71.7072V27.1938C71.7072 28.8447 71.6089 29.5326 71.265 30.2205C70.98 30.8101 70.4395 31.3309 69.8106 31.6258C69.3094 31.8616 69.221 31.8813 68.3955 31.8813C67.3342 31.8813 66.8821 31.7142 66.3318 31.1246C65.9093 30.6725 65.7226 30.3188 65.4867 29.5424L65.3098 28.9626L64.8774 29.6014C64.1208 30.7118 63.3346 31.3899 62.4698 31.7142C61.8704 31.9107 60.6715 31.9599 60.0622 31.7928ZM63.5606 29.0413C64.0323 28.7366 64.4549 28.1863 64.8087 27.3903C65.241 26.4371 65.4081 25.651 65.4081 24.4521C65.4081 23.8919 65.3983 23.4301 65.3786 23.4301C65.241 23.4301 63.3248 24.1474 62.8039 24.3833C61.5068 24.9926 61.1629 25.533 61.1137 27.0464C61.0842 27.9406 61.0941 28.0094 61.2906 28.4222C61.7328 29.3459 62.686 29.6014 63.5606 29.0413ZM132.074 31.8223C129.843 31.498 127.799 29.8471 126.827 27.577C125.942 25.533 125.775 23.3023 126.325 21.1109C126.768 19.3617 127.406 18.153 128.438 17.131C130.128 15.4604 132.32 14.8806 134.757 15.4604C137.921 16.2073 140.113 19.46 140.103 23.3908C140.103 28.0389 137.676 31.3604 133.941 31.8223C133.175 31.9206 132.752 31.9206 132.074 31.8223ZM134.256 29.2378C135.071 28.7956 135.622 27.9996 135.956 26.7614C136.123 26.162 136.133 25.9654 136.133 23.489C136.133 21.0126 136.123 20.8161 135.956 20.2167C135.602 18.9293 135.13 18.2611 134.285 17.8484C133.814 17.6125 133.686 17.5929 133.096 17.5929C132.516 17.5929 132.369 17.6322 131.907 17.8484C131.288 18.153 130.905 18.5756 130.541 19.3322C130.02 20.423 129.991 20.6392 129.991 23.5676C129.991 25.8278 130.011 26.2799 130.128 26.7516C130.453 27.9996 131.072 28.8939 131.897 29.2869C132.34 29.5031 132.438 29.513 133.096 29.4933C133.715 29.4737 133.892 29.4343 134.256 29.2378ZM147.709 31.8026C145.488 31.3801 143.817 30.0927 142.776 28.0094C142.098 26.6533 141.773 25.2284 141.773 23.5578C141.773 22.3884 141.931 21.4549 142.294 20.3444C143.041 18.1137 144.102 16.8067 145.881 15.9419C147.011 15.3916 147.512 15.2737 148.721 15.2737C151.767 15.2835 154.008 16.8755 155.217 19.9022C155.649 20.9832 155.836 22.0248 155.836 23.3908C155.836 27.1643 154.313 30.0534 151.659 31.2916C150.549 31.7928 148.859 32.0188 147.709 31.8026ZM149.959 29.2575C150.795 28.8251 151.443 27.8719 151.738 26.6435C151.944 25.7492 151.944 21.219 151.738 20.3247C151.364 18.723 150.578 17.8385 149.33 17.6027C148.8 17.5044 148.063 17.6125 147.581 17.8582C146.844 18.2316 146.176 19.2536 145.871 20.4427C145.665 21.2681 145.655 25.7492 145.871 26.6337C146.215 28.0782 146.903 29.0216 147.915 29.4049C148.397 29.5916 149.478 29.5031 149.959 29.2575ZM78.0849 31.6651C74.7044 30.8396 72.5916 27.1447 72.9847 22.7717C73.2893 19.401 74.6847 16.9738 76.9548 15.8535C77.9178 15.3818 78.4583 15.2639 79.667 15.254C80.8069 15.254 81.3671 15.3818 82.2613 15.8633C84.3938 16.9934 85.5927 19.4796 84.9637 21.4942C84.8262 21.9462 84.7181 22.1133 84.3446 22.4867C83.6666 23.1647 82.959 23.3023 82.2024 22.9289C81.485 22.5751 81.0624 21.7988 81.0624 20.8358C81.0624 19.971 81.4555 19.3126 82.1827 18.9391C82.3891 18.8311 82.3989 18.8016 82.3203 18.5854C82.1827 18.2021 81.5636 17.5732 81.0821 17.3374C80.7087 17.1506 80.522 17.1212 79.9815 17.1113C79.382 17.1113 79.2739 17.131 78.7826 17.3865C77.8785 17.8484 77.4166 18.6247 77.0629 20.2363C76.8172 21.3664 76.7484 24.4717 76.9351 25.7591C77.2398 27.8424 77.9866 28.9921 79.2346 29.2968C79.8537 29.454 80.9347 29.3557 81.4162 29.1101C82.3203 28.6482 82.8804 27.7146 83.1556 26.2013L83.2539 25.651L84.266 25.6313L85.2782 25.6117V25.9163C85.2782 26.3978 85.0031 27.5967 84.7377 28.2649C83.8631 30.4957 81.8584 31.8616 79.441 31.8419C79.0086 31.8223 78.4681 31.7633 78.0849 31.6651ZM161.585 31.6356C160.602 31.3604 159.609 30.5448 159.01 29.513C157.949 27.7048 157.467 24.7862 157.752 21.9167C157.998 19.4207 158.676 17.6518 159.826 16.4922C160.73 15.5783 161.585 15.2442 162.833 15.3228C164.248 15.4113 165.103 16.0992 166.213 18.0154L166.469 18.4576L166.449 15.5783L166.429 12.699L166.233 12.3453C165.879 11.7163 165.142 11.4707 163.619 11.4707H162.96V10.4192C162.96 9.64285 162.99 9.37752 163.059 9.37752C163.118 9.37752 164.7 9.28907 166.577 9.20063L169.996 9.02375V18.4773C169.996 26.2995 170.016 27.9701 170.105 28.1863C170.331 28.7071 170.822 28.9921 171.657 29.0904L172.149 29.1494V31.2916H171.893C171.746 31.2916 170.478 31.3801 169.053 31.4783L166.478 31.6552V27.8227L166.213 28.5401C165.555 30.3286 164.788 31.2425 163.619 31.6159C163.009 31.7732 162.145 31.7928 161.585 31.6356ZM164.444 29.0707C165.171 28.7071 165.761 27.7539 166.105 26.4175C166.508 24.8452 166.537 21.7791 166.184 20.3641C165.84 19.0472 165.044 17.9761 164.199 17.7304C163.717 17.5929 163.56 17.583 163.157 17.6911C162.459 17.8877 161.948 18.6836 161.683 19.9612C161.555 20.5704 161.535 21.0913 161.535 23.4792C161.535 26.388 161.575 26.8892 161.899 27.8817C162.076 28.432 162.518 28.9921 162.882 29.1592C163.314 29.3459 163.972 29.3066 164.444 29.0707ZM107.31 25.2579C106.259 21.7791 105.355 18.8311 105.296 18.7131C105.148 18.4183 104.804 18.2513 104.313 18.2513H103.91V15.8535H110.533V18.2513H110.19C109.757 18.2513 109.295 18.379 109.168 18.5362C109.109 18.605 109.069 18.7721 109.079 18.9097C109.099 19.2831 111.388 26.8597 111.447 26.7123C111.477 26.6435 112.047 25.0122 112.725 23.0861L113.953 19.5779L113.796 19.1455C113.708 18.9097 113.55 18.6149 113.452 18.4969C113.285 18.3004 113.197 18.2807 112.597 18.2414L111.929 18.2021V15.8928H119.044V18.212L118.425 18.2611C117.609 18.3299 117.403 18.4576 117.403 18.9195C117.403 19.1455 117.805 20.5606 118.533 22.8896C119.152 24.8845 119.682 26.555 119.712 26.614C119.781 26.7516 121.854 20.0791 121.923 19.5189C121.952 19.234 121.933 19.0178 121.864 18.89C121.707 18.5952 121.274 18.3397 120.832 18.2807L120.439 18.2316L120.459 17.0622L120.478 15.8928H125.667V18.212L125.362 18.2709C124.861 18.379 124.439 18.6345 124.213 18.9883C124.065 19.2045 123.367 21.3074 122.07 25.4348L120.144 31.557H117.589L116.233 27.184C115.486 24.7764 114.857 22.811 114.828 22.811C114.798 22.811 114.081 24.7862 113.236 27.2036L111.693 31.5963H109.197L107.31 25.2579ZM26.8275 29.9159V28.5597H27.5743C28.842 28.5597 29.5888 28.2158 30.0016 27.4198L30.2276 26.9973L30.2472 20.2854C30.2669 15.1361 30.2472 13.495 30.1686 13.2199C30.0409 12.7678 29.4709 12.1782 29.0189 12.0308C28.842 11.9718 28.2818 11.903 27.761 11.8834L26.8176 11.8343V9.22029L33.7063 9.24977C40.4968 9.27925 40.6048 9.27925 41.2534 9.45613C42.5506 9.80008 43.4547 10.2816 44.2605 11.0579C45.312 12.0505 45.7837 13.1511 45.7935 14.6153C45.8033 15.7257 45.6166 16.3841 45.0368 17.2489C44.3489 18.2807 43.3859 18.9785 41.9315 19.4796L40.9783 19.8137L41.843 20.0791C42.3147 20.2265 42.9437 20.4722 43.2385 20.6392C44.2801 21.2092 45.2628 22.2214 45.764 23.2434C46.1767 24.0885 46.3143 24.6781 46.3143 25.5723C46.3143 28.0979 44.4668 30.2598 41.6367 31.0558C40.9979 31.2327 40.9684 31.2327 33.9127 31.2622L26.8275 31.2916V29.9159ZM39.062 28.4713C40.7621 28.1077 41.5482 26.8499 41.4107 24.7174C41.3026 23.0566 40.7031 22.0052 39.5632 21.4843C38.9244 21.1895 38.4331 21.1306 36.5955 21.1306H34.8856V28.5597H36.7625C37.8533 28.5597 38.8163 28.5204 39.062 28.4713ZM39.0718 18.2906C39.8678 18.0252 40.5262 17.1506 40.7326 16.1188C40.8604 15.4899 40.8014 14.0158 40.6343 13.554C40.3592 12.8071 39.8875 12.3453 39.0915 12.0504C38.7672 11.9325 38.3545 11.903 36.8018 11.8736L34.9052 11.8441V18.4085H36.8116C38.3152 18.4085 38.777 18.3888 39.0718 18.2906ZM47.7589 30.2008V29.1297L48.2699 29.0806C48.8988 29.0216 49.4589 28.7661 49.6948 28.4418L49.8717 28.1961L49.8913 20.4918C49.9012 16.2564 49.8913 12.6695 49.8717 12.5221C49.7636 11.9325 49.1543 11.5198 48.2502 11.4215L47.7589 11.3626V9.32838L49.2133 9.27925C50.0191 9.24977 51.2966 9.16132 52.0729 9.06305C52.8394 8.97461 53.4782 8.896 53.488 8.896C53.4978 8.896 53.5076 13.2199 53.5076 18.5068C53.5076 27.7343 53.5175 28.1274 53.6551 28.3927C53.8516 28.7661 54.3626 29.0216 55.0407 29.0806L55.5811 29.1297V31.272H47.7589V30.2008ZM86.0349 30.2107L86.0545 29.1494L86.6048 29.0904C87.5089 29.002 88.0199 28.7268 88.2558 28.1961C88.3933 27.8817 88.4032 27.5083 88.4032 20.2953C88.4032 11.7949 88.4425 12.3453 87.8136 11.9817C87.4794 11.7851 86.7621 11.6181 86.2707 11.6181H86.0054L86.0251 10.5568L86.0447 9.49544L87.961 9.44631C89.4645 9.407 90.0738 9.35786 90.801 9.22029C91.3021 9.12202 91.7738 9.03357 91.8426 9.03357C91.9507 9.02375 91.9704 9.88852 91.9999 16.2564L92.0391 23.489L93.9947 21.4745C95.0659 20.3641 95.9896 19.3715 96.0486 19.2733C96.2058 18.9981 96.1763 18.5952 95.9994 18.4085C95.8618 18.2709 95.7341 18.2513 94.9185 18.2513H94.0045V15.8535H102.24V18.2316L101.463 18.2611C100.775 18.2906 100.628 18.32 100.205 18.5559C99.4094 18.9785 98.4267 19.7744 97.3555 20.8652L96.3434 21.8872L98.2891 25.0024C99.3602 26.7123 100.372 28.2748 100.53 28.4615C100.903 28.9037 101.345 29.1101 101.935 29.1101H102.397V31.272H94.6531V29.1101H95.3115C96.3237 29.1101 96.5301 28.8644 96.1566 28.1274C95.8717 27.577 93.8375 24.3931 93.7589 24.3931C93.7196 24.3931 93.3167 24.7567 92.8548 25.1989L92.0195 26.0047V27.1545C92.0195 28.7268 92.1571 28.9528 93.1987 29.0806L93.6606 29.1395L93.6803 30.2008L93.6999 31.2622H86.0152L86.0349 30.2107Z" fill="#202020"/>
<path d="M18.681 31.3113H3.48857L3.63597 30.702C5.61119 30.2795 6.91818 29.8765 7.55693 29.4638C8.51997 28.8545 9.31596 27.9505 9.92523 26.7614C10.5443 25.5625 10.8588 24.3047 10.8588 22.978C10.8588 22.7913 10.849 22.5162 10.8391 22.1526C10.1119 23.6364 9.21769 24.7174 8.1662 25.3955C7.12454 26.0735 6.06323 26.4175 4.98227 26.4175C3.59667 26.4175 2.41743 25.9359 1.45439 24.9631C0.491348 23.9902 0 22.811 0 21.4057C0 20.0201 0.442213 18.8605 1.32664 17.9171C2.21107 16.9639 3.21342 16.4824 4.33369 16.4824C5.05106 16.4824 6.02393 16.787 7.2523 17.3963C6.75112 16.561 6.42683 15.9321 6.2696 15.5194C6.12219 15.087 6.05341 14.6251 6.05341 14.1436C6.05341 12.7776 6.5251 11.6279 7.46849 10.6845C8.41188 9.7411 9.59111 9.26941 10.9964 9.26941C12.4016 9.26941 13.5907 9.73128 14.5439 10.6747C15.5069 11.6181 15.9983 12.7383 15.9983 14.0453C15.9983 15.1066 15.5856 16.2269 14.7601 17.3963C15.7624 16.9148 16.3619 16.6495 16.5683 16.5905C16.8925 16.4922 17.2561 16.4431 17.659 16.4431C18.8579 16.4431 19.8898 16.9148 20.7545 17.8582C21.639 18.7917 22.0812 19.9513 22.0812 21.3369C22.0812 22.7717 21.5997 23.9804 20.6268 24.9532C19.6736 25.9163 18.5238 26.4076 17.1677 26.4076C16.411 26.4076 15.6347 26.2307 14.8387 25.8671C14.0526 25.4937 13.3647 25.0024 12.775 24.4029C12.3525 23.9607 11.8415 23.2139 11.2126 22.1624C11.2617 24.059 11.5467 25.5625 12.0773 26.673C12.6178 27.7736 13.4335 28.6875 14.5341 29.4147C15.2711 29.906 16.6076 30.3384 18.5336 30.702L18.681 31.3113Z" fill="#202020"/>
</g>
<defs>
<clipPath id="clip0_20063_2869">
<rect width="172" height="40" fill="white"/>
</clipPath>
</defs>
</svg>
