<svg width="124" height="40" viewBox="0 0 124 40" fill="none" xmlns="http://www.w3.org/2000/svg">
<g clip-path="url(#clip0_20034_17072)">
<path d="M7.69704 20.6535C7.43319 20.6403 7.1687 20.6582 6.90904 20.7069C6.47586 20.7767 6.06093 20.9321 5.68841 21.164C5.31589 21.3958 4.99324 21.6995 4.73925 22.0573C4.48526 22.4151 4.30502 22.8199 4.20902 23.248C4.11302 23.6761 4.10319 24.1191 4.1801 24.5511C4.36889 26.3327 6.26829 27.835 8.02662 27.8797C8.20708 27.8843 8.38759 27.8723 8.56586 27.8439C10.4686 27.5359 10.9668 25.5752 10.6531 23.6492C10.2989 21.4747 8.74901 20.7082 7.69704 20.6535ZM9.56143 25.8055C9.48111 25.9258 9.36962 26.0219 9.23888 26.0837C9.10814 26.1455 8.96306 26.1706 8.81916 26.1564C8.56619 26.1363 8.3303 26.0209 8.15925 25.8335C7.98821 25.646 7.8948 25.4006 7.89795 25.1468C7.89356 24.8087 7.95874 24.4733 8.08947 24.1614C8.1711 23.9633 8.17895 23.7425 8.11158 23.5391C8.04421 23.3357 7.9061 23.1632 7.72235 23.053C7.49655 22.913 7.22565 22.865 6.96553 22.919C6.71359 22.9673 6.49096 23.1133 6.34613 23.325C6.24836 23.4831 6.17204 23.6534 6.11917 23.8316C6.10886 23.8628 6.10068 23.8872 6.09447 23.9032C6.00825 24.1231 5.87068 24.1873 5.77765 24.1754C5.74339 24.1691 5.71166 24.1531 5.68625 24.1293C5.66083 24.1055 5.64281 24.0749 5.63432 24.0411C5.58606 23.7476 5.60867 23.4468 5.70026 23.1638C5.79185 22.8808 5.94976 22.6238 6.16083 22.4143C6.34465 22.2308 6.56793 22.0917 6.81364 22.0076C7.05936 21.9235 7.32103 21.8966 7.57871 21.929C7.84931 21.9615 8.10793 22.0594 8.33224 22.2142C8.55654 22.369 8.73978 22.5761 8.86613 22.8176C8.98771 23.1082 9.03688 23.424 9.00944 23.7379C8.98199 24.0517 8.87874 24.3542 8.70856 24.6193C8.68705 24.6651 8.66735 24.7071 8.65053 24.7447C8.58932 24.8485 8.55553 24.9663 8.55235 25.0868C8.54917 25.2073 8.5767 25.3266 8.63235 25.4336C8.68131 25.4988 8.74522 25.5513 8.81871 25.5866C8.8922 25.622 8.9731 25.6392 9.05462 25.6368C9.13244 25.6358 9.20986 25.6254 9.28523 25.606C9.38295 25.5844 9.48401 25.5621 9.54553 25.6353C9.56594 25.6583 9.57848 25.6872 9.58134 25.7178C9.5842 25.7484 9.57723 25.7791 9.56143 25.8055Z" fill="white"/>
<path d="M32.0119 29.4589C32.4089 28.4515 32.6384 27.386 32.6913 26.3045C32.6913 24.9749 31.9385 24.4237 31.4591 24.4237C31.4445 24.3724 31.3496 24.0257 31.2191 23.6083C31.1444 23.3663 31.0558 23.1288 30.9537 22.897C31.346 22.355 31.512 21.6817 31.4166 21.0194C31.3381 20.5088 31.0953 20.0377 30.725 19.6775C30.0222 19.0809 29.1835 18.6661 28.2828 18.4696C28.1471 18.4317 27.6998 18.3091 27.6605 18.2971C27.6574 18.2714 27.6278 16.8323 27.6009 16.2145C27.5892 15.5949 27.4969 14.9795 27.3262 14.3839C27.114 13.5291 26.6754 12.7472 26.0565 12.1205C27.6061 10.5165 28.5735 8.74957 28.5711 7.23377C28.5667 4.31865 24.9815 3.4365 20.5634 5.26343C20.5586 5.26548 19.6338 5.65694 19.6272 5.66031C19.6231 5.65621 17.9348 4.00226 17.9095 3.98001C12.8723 -0.40734 -2.87748 17.0737 2.15803 21.3194L3.25849 22.2503C2.96153 23.046 2.85669 23.9006 2.95249 24.7445C3.10166 25.9723 3.70854 27.0985 4.65191 27.8983C5.56758 28.7294 6.7506 29.205 7.98669 29.2391C9.94624 33.7483 14.4234 36.5144 19.673 36.6702C25.3043 36.8372 30.0313 34.1987 32.0119 29.4589ZM33.1678 24.1226C33.6502 24.7451 33.8984 25.5175 33.869 26.3045C33.8183 27.5322 33.5616 28.7425 33.1096 29.8851L33.0989 29.9118C32.0771 32.369 30.293 34.433 28.0096 35.7997C25.633 37.1821 22.9251 37.8921 20.176 37.8538C19.9981 37.8538 19.8168 37.851 19.6381 37.8457C16.9248 37.7891 14.2762 37.0072 11.967 35.5814C9.93444 34.3077 8.28958 32.5015 7.21099 30.3589C5.96836 30.1659 4.80825 29.6171 3.87093 28.7787C2.70555 27.7831 1.95902 26.3842 1.78066 24.8619C1.70117 24.1222 1.74405 23.3745 1.90758 22.6488L1.3967 22.2168C0.983173 21.8596 0.647117 21.4216 0.409215 20.9297C0.171313 20.4378 0.0365987 19.9024 0.0133635 19.3565C-0.028553 18.2233 0.167292 17.0939 0.58829 16.041C1.63701 13.1778 4.04955 9.76853 7.04229 6.92087C8.3778 5.6249 9.8593 4.48841 11.457 3.53424C12.7896 2.68192 14.3201 2.18897 15.8996 2.10333C16.9183 2.07676 17.9106 2.42975 18.6836 3.09375C18.7278 3.13224 19.3891 3.77908 19.8908 4.27048C20.0167 4.21736 20.1072 4.17915 20.1099 4.17814C21.594 3.53171 23.1888 3.17778 24.807 3.13575C27.8053 3.13575 29.7451 4.7436 29.7489 7.23199C29.7512 8.76741 28.9974 10.4887 27.6076 12.1549C27.9857 12.7396 28.2718 13.3788 28.4557 14.0503C28.6531 14.7378 28.7612 15.4477 28.7774 16.1628C28.7909 16.4704 28.8047 16.964 28.8158 17.3997C29.8411 17.6592 30.7886 18.1624 31.5779 18.8664C32.1129 19.3973 32.4638 20.0856 32.5791 20.8305C32.695 21.5657 32.5814 22.3188 32.2538 22.9871C32.2829 23.0709 32.3133 23.1617 32.3435 23.258C32.3697 23.342 32.3945 23.423 32.4176 23.4998C32.7062 23.656 32.9611 23.8676 33.1678 24.1226Z" fill="white"/>
<path d="M29.5982 22.6667C29.7892 22.4872 29.9381 22.2678 30.0344 22.024C30.1307 21.7802 30.1719 21.5182 30.1551 21.2567C30.1169 20.993 29.9939 20.749 29.8047 20.5615C29.2496 20.1007 28.5892 19.7845 27.8822 19.6409C27.5593 19.5493 27.3402 19.4906 27.1042 19.4121C26.6844 19.2724 26.477 19.1599 26.43 18.3619C26.4095 18.013 26.3493 16.7972 26.3276 16.2949C26.2893 15.4146 26.1845 14.2114 25.4461 13.7146C25.2583 13.59 25.0399 13.5194 24.8147 13.5106C24.6886 13.5028 24.5622 13.5153 24.44 13.5477C24.0653 13.6352 23.7242 13.8301 23.4585 14.1085C23.1146 14.4226 22.7091 14.6617 22.2678 14.8107C21.8264 14.9597 21.359 15.0152 20.895 14.9738C20.3782 14.9519 19.8306 14.8706 19.2028 14.8329C19.0806 14.8257 18.9581 14.8181 18.8358 14.8116C18.0246 14.8356 17.249 15.1503 16.6506 15.6985C16.0521 16.2466 15.6706 16.9916 15.5756 17.7976C15.2162 20.2976 17.0069 21.5895 17.5238 22.3476C17.6038 22.4444 17.6532 22.5626 17.6661 22.6875C17.6527 22.8259 17.5869 22.954 17.4821 23.0456L17.4822 23.0463C16.7664 23.8522 16.2637 24.8245 16.0203 25.8746C15.7769 26.9246 15.8004 28.019 16.0886 29.0576C16.1569 29.3071 16.2445 29.5509 16.3506 29.7867C17.6572 32.8738 21.7106 34.3115 25.6706 33.004C26.1893 32.8326 26.6926 32.6176 27.175 32.3613C28.0432 31.9273 28.8242 31.3373 29.4789 30.6206C30.5002 29.5847 31.1711 28.2546 31.397 26.8174C31.5162 26.0218 31.3416 25.7139 31.1037 25.5658C30.9358 25.4713 30.7412 25.4354 30.5506 25.4637C30.4498 24.8392 30.2729 24.2293 30.0237 23.6477L29.5982 22.6667Z" fill="white"/>
<path d="M23.1084 10.7439C23.1723 10.7586 23.2129 10.6482 23.1557 10.6162C22.2097 10.1259 21.1662 9.85284 20.1013 9.81683C20.091 9.81667 20.081 9.81369 20.0724 9.80821C20.0637 9.80273 20.0568 9.79497 20.0522 9.78578C20.0477 9.77659 20.0458 9.76634 20.0468 9.75614C20.0477 9.74594 20.0515 9.73621 20.0576 9.728C20.2231 9.51164 20.4164 9.31798 20.6324 9.152C20.6421 9.14449 20.6491 9.13408 20.6524 9.1223C20.6557 9.11051 20.6552 9.09797 20.6509 9.08651C20.6466 9.07504 20.6387 9.06525 20.6285 9.05858C20.6182 9.05191 20.6061 9.0487 20.5938 9.04942C19.2899 9.17749 18.0364 9.61941 16.9405 10.3374C16.9311 10.3437 16.9201 10.347 16.9088 10.347C16.8976 10.347 16.8865 10.3436 16.8772 10.3372C16.8679 10.3309 16.8607 10.3219 16.8566 10.3114C16.8524 10.3009 16.8515 10.2894 16.854 10.2784C16.9423 9.9492 17.0722 9.6326 17.2406 9.33626C17.2462 9.32609 17.2483 9.31441 17.2467 9.30293C17.2451 9.29145 17.2399 9.28079 17.2318 9.27251C17.2237 9.26423 17.2131 9.25878 17.2017 9.25695C17.1902 9.25512 17.1785 9.25702 17.1682 9.26236C15.5856 10.1316 14.1751 11.2826 13.0061 12.6586C12.997 12.6691 12.992 12.6826 12.9922 12.6965C12.9923 12.7104 12.9976 12.7237 13.0069 12.734C13.0163 12.7443 13.0291 12.7508 13.0429 12.7522C13.0567 12.7537 13.0706 12.75 13.0819 12.7419C14.4366 11.7953 15.9627 11.1217 17.575 10.7587C19.395 10.3389 21.2862 10.3338 23.1084 10.7439Z" fill="white"/>
<path d="M18.4474 6.27842C18.4474 6.27842 17.0764 4.6912 16.6626 4.57413C14.1164 3.88706 8.61628 7.6748 5.10447 12.6791C3.6835 14.7039 1.64936 18.2895 2.62203 20.1338C2.96774 20.5478 3.35747 20.9231 3.78433 21.2528C4.43603 20.3394 5.41685 19.7145 6.52015 19.5099C7.90482 15.6388 10.3354 12.2273 13.542 9.65423C15.0807 8.39492 16.7215 7.26576 18.4474 6.27842Z" fill="white"/>
<path d="M9.46917 25.7367C9.48892 25.7606 9.50097 25.79 9.50373 25.8208C9.50648 25.8517 9.49983 25.8827 9.48463 25.9098C9.41072 26.0297 9.30478 26.1266 9.17874 26.1896C9.05271 26.2525 8.91159 26.279 8.7713 26.2661C8.52128 26.2392 8.29081 26.1183 8.12647 25.928C7.96213 25.7377 7.87617 25.492 7.88596 25.2408C7.88173 24.8983 7.94425 24.5583 8.07003 24.2398C8.14943 24.0402 8.15771 23.8194 8.09349 23.6144C8.02927 23.4095 7.89646 23.2328 7.71736 23.1142C7.61137 23.0441 7.49241 22.9959 7.36748 22.9725C7.24256 22.9491 7.11422 22.951 6.99003 22.978C6.86836 23.0036 6.75304 23.0533 6.65085 23.1241C6.54866 23.1949 6.46166 23.2855 6.39497 23.3904C6.30064 23.5519 6.2273 23.7248 6.17672 23.9049C6.16696 23.9366 6.15908 23.9614 6.15312 23.9775C6.07024 24.201 5.93812 24.2662 5.8486 24.2542C5.80628 24.2484 5.74809 24.2201 5.71079 24.1178C5.66397 23.822 5.68522 23.5194 5.77291 23.2331C5.86061 22.9468 6.01244 22.6842 6.21687 22.4654C6.38856 22.281 6.60166 22.1402 6.83857 22.0545C7.07547 21.9689 7.32937 21.9408 7.57926 21.9727C7.84399 22.0091 8.09556 22.1106 8.31145 22.2681C8.52734 22.4255 8.70081 22.6341 8.81632 22.875C8.9333 23.1712 8.98051 23.4903 8.95428 23.8077C8.92805 24.125 8.82909 24.432 8.66508 24.705C8.64433 24.7514 8.62533 24.794 8.60932 24.8325C8.55035 24.9391 8.51796 25.0583 8.51492 25.1801C8.51187 25.3019 8.53826 25.4226 8.59183 25.5321C8.63713 25.5973 8.69789 25.6503 8.7687 25.6863C8.8395 25.7223 8.91813 25.7402 8.99753 25.7383C9.07239 25.7372 9.14681 25.7267 9.21904 25.707C9.31304 25.685 9.41016 25.6624 9.46917 25.7367ZM32.6406 26.3152C32.5881 27.3942 32.3601 28.4574 31.9657 29.4631C29.9979 34.1928 25.3019 36.8258 19.7076 36.6592C14.4924 36.5038 10.0444 33.7434 8.09769 29.2436C6.86873 29.2093 5.69304 28.7344 4.7849 27.9057C3.84678 27.1059 3.24404 25.9824 3.09655 24.7585C3.00136 23.9165 3.1055 23.0639 3.40055 22.2695L2.30726 21.3405C-2.69522 17.1038 12.9512 -0.340572 17.9556 4.03766C17.9809 4.0597 19.6579 5.71033 19.6621 5.71439C19.6688 5.71099 20.5875 5.32025 20.5921 5.31834C24.9814 3.49521 28.5431 4.37549 28.5475 7.28434C28.5498 8.79713 27.5888 10.5604 26.0494 12.1609C26.6646 12.7871 27.1002 13.5672 27.3106 14.4194C27.4803 15.014 27.5721 15.6282 27.5835 16.2464C27.6103 16.8628 27.6398 18.299 27.6428 18.3246C27.6819 18.3364 28.1262 18.4588 28.2609 18.4967C29.1565 18.6931 29.9898 19.1072 30.6873 19.7022C31.0555 20.0622 31.2966 20.5322 31.3743 21.0412C31.4692 21.7017 31.3044 22.3733 30.9145 22.9148C31.016 23.1462 31.104 23.3832 31.1782 23.6247C31.3077 24.0413 31.402 24.3871 31.4165 24.4384C31.8927 24.4383 32.6406 24.9882 32.6406 26.3152ZM10.5334 23.7198C10.1932 21.5113 8.70374 20.7329 7.69307 20.6774C7.43938 20.6639 7.18499 20.6821 6.93578 20.7314C5.13188 21.0964 4.11307 22.6356 4.31354 24.6356C4.45955 25.5327 4.90379 26.3544 5.57448 26.9678C6.24516 27.5813 7.10311 27.9507 8.00966 28.0163C8.18315 28.0209 8.35668 28.0087 8.52781 27.9798C10.3561 27.667 10.8348 25.6758 10.5334 23.7198ZM13.6167 9.69984C15.1448 8.44359 16.7748 7.3168 18.4899 6.33113C18.4899 6.33113 17.1281 4.74731 16.7168 4.63059C14.1873 3.94473 8.72314 7.72459 5.23442 12.7183C3.82279 14.7389 1.802 18.3171 2.76818 20.1574C3.11142 20.5704 3.4986 20.9449 3.9229 21.2741C4.56885 20.3636 5.54352 19.74 6.6409 19.5349C8.0138 15.6755 10.4282 12.2715 13.6167 9.69984ZM19.1143 27.1773C19.1813 27.4708 19.3264 27.7407 19.5342 27.9586C19.742 28.1765 20.0047 28.3342 20.2948 28.4151C20.5965 28.5275 20.9077 28.6123 21.2248 28.6684C25.2259 29.3587 28.9665 27.0641 29.8088 26.4861C29.872 26.4427 29.9138 26.485 29.863 26.5616C29.8377 26.6024 29.8101 26.6418 29.7806 26.6796C28.7498 28.0132 25.9788 29.5575 22.3735 29.557C20.8012 29.5567 19.2296 29.0011 18.6526 28.1473C17.7574 26.8226 18.6083 24.889 20.0999 25.0905C20.1017 25.0907 20.6104 25.1486 20.7533 25.1644C23.0721 25.3875 25.4094 25.0123 27.5419 24.0748C29.5771 23.1272 30.3459 22.0843 30.2306 21.2401C30.192 20.978 30.0688 20.7356 29.8797 20.5499C29.3231 20.0918 28.6623 19.7779 27.9556 19.6358C27.6323 19.5448 27.413 19.4867 27.1767 19.4086C26.7566 19.2698 26.549 19.1581 26.5019 18.3657C26.4814 18.0192 26.4212 16.812 26.3993 16.313C26.361 15.4389 26.2562 14.2441 25.517 13.7507C25.3288 13.6269 25.1103 13.5568 24.8852 13.5481C24.7589 13.5405 24.6323 13.5529 24.51 13.585C24.1355 13.6717 23.7943 13.8652 23.5277 14.142C23.1822 14.4543 22.7759 14.6918 22.3344 14.8396C21.8928 14.9875 21.4254 15.0425 20.9616 15.0012C20.4444 14.9796 19.8963 14.8988 19.268 14.8613C19.1457 14.8541 19.023 14.8465 18.9005 14.8403C18.0915 14.8615 17.3171 15.1725 16.7181 15.7167C16.1192 16.261 15.7356 17.0022 15.6372 17.8054C15.2775 20.288 17.0699 21.5709 17.5873 22.3237C17.6673 22.4195 17.7169 22.537 17.7298 22.6612C17.7161 22.7989 17.6502 22.9261 17.5456 23.0167V23.0175C16.8298 23.8149 16.3268 24.78 16.083 25.8234C15.8391 26.8668 15.8625 27.9549 16.1508 28.9869C16.2192 29.2347 16.3068 29.4768 16.413 29.711C17.7208 32.7766 21.778 34.2041 25.7417 32.9056C26.2607 32.7356 26.7645 32.5223 27.2476 32.2677C28.1156 31.8375 28.8973 31.2515 29.5537 30.539C30.5745 29.5131 31.2463 28.1916 31.4736 26.7623C31.5929 25.9721 31.4182 25.6665 31.18 25.5194C31.0117 25.4256 30.8171 25.3899 30.6264 25.4179C30.5254 24.7974 30.3483 24.1917 30.0991 23.6145C28.9671 24.4687 27.6874 25.1072 26.3241 25.4978C24.6838 25.9613 22.9774 26.1463 21.2759 26.0453C20.1813 25.9566 19.4571 25.6361 19.1847 26.524C20.8405 27.0777 22.5985 27.257 24.332 27.0491C24.3442 27.0479 24.3565 27.0491 24.3683 27.0526C24.38 27.0561 24.391 27.0619 24.4005 27.0697C24.4099 27.0774 24.4178 27.087 24.4236 27.0978C24.4294 27.1086 24.433 27.1205 24.4342 27.1327C24.436 27.1532 24.4314 27.1737 24.4211 27.1915C24.4107 27.2093 24.3951 27.2235 24.3764 27.232C24.3764 27.232 22.3432 28.1789 19.1143 27.1773ZM13.1597 12.7809C14.5045 11.8368 16.0208 11.1646 17.6234 10.802C19.4313 10.3831 21.3105 10.378 23.1206 10.7872C23.1839 10.8017 23.2244 10.6917 23.1677 10.6599C22.2284 10.1708 21.1915 9.89817 20.1331 9.86203C20.1229 9.86185 20.1129 9.85885 20.1043 9.85338C20.0957 9.8479 20.0888 9.84016 20.0843 9.83101C20.0798 9.82185 20.078 9.81163 20.0789 9.80148C20.0798 9.79132 20.0836 9.78163 20.0897 9.77345C20.2541 9.55766 20.4461 9.3644 20.6609 9.19863C20.6705 9.19112 20.6775 9.18073 20.6808 9.16899C20.6841 9.15724 20.6836 9.14474 20.6793 9.13331C20.675 9.12188 20.6672 9.11212 20.657 9.10544C20.6467 9.09876 20.6347 9.09552 20.6225 9.09618C19.3264 9.22432 18.0808 9.66541 16.993 10.3815C16.9837 10.3878 16.9727 10.3912 16.9615 10.3911C16.9502 10.3911 16.9393 10.3877 16.93 10.3814C16.9208 10.375 16.9136 10.366 16.9095 10.3556C16.9054 10.3451 16.9046 10.3337 16.9071 10.3227C16.9947 9.99435 17.1238 9.67843 17.2911 9.38261C17.2967 9.37249 17.2988 9.36086 17.2973 9.34942C17.2957 9.33799 17.2905 9.32735 17.2825 9.31908C17.2744 9.31081 17.2639 9.30534 17.2526 9.30348C17.2412 9.30161 17.2295 9.30345 17.2192 9.30873C15.6459 10.1771 14.2446 11.3258 13.0844 12.6981C13.0753 12.7085 13.0704 12.7219 13.0705 12.7357C13.0707 12.7495 13.0759 12.7628 13.0852 12.7731C13.0945 12.7833 13.1072 12.7897 13.121 12.7912C13.1347 12.7926 13.1485 12.789 13.1597 12.7809ZM23.6963 21.208C23.8058 21.2773 23.937 21.3039 24.0649 21.2826C24.1927 21.2614 24.3083 21.1938 24.3895 21.0928C24.4904 20.8974 24.3439 20.6325 24.0621 20.5009C23.9525 20.4316 23.8213 20.405 23.6934 20.4263C23.5656 20.4476 23.45 20.5153 23.3689 20.6164C23.2678 20.8116 23.4145 21.0765 23.6963 21.208ZM24.5607 18.0404C24.6283 18.3921 24.7742 18.724 24.9875 19.0117C25.2079 18.9846 25.4308 18.9846 25.6513 19.0117C25.7801 18.6257 25.7914 18.21 25.6837 17.8176C25.5244 17.0934 25.3088 16.6552 24.8633 16.7233C24.418 16.7916 24.4016 17.3162 24.5607 18.0404ZM25.5084 19.7038C25.396 19.6716 25.2764 19.6754 25.1663 19.7146C25.0562 19.7539 24.9612 19.8266 24.8946 19.9227C24.828 20.0187 24.7932 20.1332 24.795 20.25C24.7968 20.3669 24.8352 20.4803 24.9047 20.5742C24.9743 20.6681 25.0715 20.7379 25.1827 20.7737C25.294 20.8095 25.4137 20.8096 25.525 20.7739C25.6362 20.7382 25.7336 20.6685 25.8032 20.5747C25.8729 20.4808 25.9114 20.3675 25.9133 20.2506C25.9294 20.1249 25.8963 19.9977 25.8208 19.8958C25.7454 19.7939 25.6334 19.7251 25.5084 19.7038Z" fill="black"/>
<path d="M18.1129 19.6391C18.0419 19.6291 18.0116 19.5987 18.0027 19.5585C17.9751 19.4335 18.1672 19.2279 18.3697 19.0795C18.6653 18.8634 19.0115 18.727 19.3751 18.6834C19.7386 18.6397 20.1073 18.6903 20.4456 18.8303C20.7617 18.9607 21.0336 19.1795 21.2285 19.4605C21.3009 19.5786 21.3149 19.6702 21.2681 19.7182C21.1952 19.7951 21.0092 19.707 20.7064 19.5742C20.3426 19.3957 19.9407 19.3092 19.5357 19.3221C19.0559 19.401 18.5809 19.5069 18.1129 19.6391ZM21.1309 20.2605C21.0001 20.1229 20.8372 20.02 20.6568 19.9609C20.4764 19.9017 20.2842 19.8883 20.0973 19.9217C19.8218 19.951 19.5607 20.0598 19.3459 20.2349C19.2457 20.3067 19.1769 20.4142 19.1536 20.5351C19.153 20.5486 19.1555 20.562 19.1607 20.5744C19.1659 20.5868 19.1737 20.598 19.1837 20.607C19.2015 20.6231 19.2247 20.6319 19.2487 20.6317C19.3478 20.6171 19.4447 20.5903 19.5372 20.5517C19.942 20.3991 20.3794 20.3537 20.8069 20.4198C21.0051 20.4421 21.0987 20.4545 21.1421 20.3865C21.1533 20.3668 21.1582 20.3442 21.1562 20.3217C21.1542 20.2992 21.1454 20.2779 21.1309 20.2605Z" fill="black"/>
<path d="M20.5698 20.4421C20.6948 19.9971 20.702 19.5273 20.5906 19.0787C20.4294 18.3535 20.1857 17.939 19.734 18.0073C19.2823 18.0756 19.2706 18.66 19.4162 19.3883C19.4831 19.7221 19.6135 20.0399 19.8003 20.3244C20.1597 20.826 20.4041 20.6962 20.5698 20.4421Z" fill="black"/>
<path d="M49.4943 21.0829C47.0103 21.0829 46.9671 23.7949 46.3791 23.7949C46.2567 23.7949 46.1595 23.6869 46.1595 23.5381C46.1595 23.3401 46.2111 23.1685 46.2111 22.8481C46.2111 21.8749 45.5259 21.0829 44.0895 21.0829C42.8703 21.0829 41.9775 21.6937 41.4327 22.8229C41.1567 23.3953 41.1807 23.7937 40.9011 23.7937C40.7979 23.7937 40.7175 23.6965 40.7175 23.5561C40.7175 23.1409 41.0835 22.7617 41.0835 21.8701C41.0835 21.6385 41.0655 21.4429 41.0283 21.2833H38.6667V30.4441H41.8731V25.4737C41.8731 24.4945 42.2931 23.8669 43.0095 23.8669C43.4847 23.8669 43.9071 24.2821 43.9071 25.0417V30.4441H47.1135V25.4737C47.1135 24.3733 47.6223 23.8669 48.2499 23.8669C48.7755 23.8669 49.1475 24.3529 49.1475 25.0417V30.4441H52.3167V24.8197C52.3167 22.3621 51.3411 21.0817 49.4955 21.0817L49.4943 21.0829Z" fill="black"/>
<path d="M71.4243 18.7189H68.2551V30.4441H71.4243V18.7189Z" fill="black"/>
<path d="M72.4695 25.7545C72.4695 28.8709 74.4867 30.6649 77.1051 30.6649C78.6063 30.6649 79.7535 30.0709 80.4579 29.4925V26.4697C79.7451 26.9569 78.6483 27.5137 77.4711 27.5137C76.0023 27.5137 75.2355 26.9041 75.2355 25.8469C75.2355 24.7897 76.1199 24.1981 77.4159 24.1981C78.5895 24.1981 79.6659 24.6649 80.4567 25.2061V21.9997C79.7871 21.5017 78.6051 21.0649 77.1039 21.0649C74.2935 21.0649 72.4683 22.8217 72.4683 25.7557L72.4695 25.7545Z" fill="black"/>
<path d="M87.4384 21.1009C86.1496 21.1009 85.4032 21.6985 84.8548 22.8049C84.6136 23.2933 84.5956 23.7757 84.3232 23.7757C84.2212 23.7757 84.1396 23.6809 84.1396 23.5381C84.1396 23.0305 84.7444 22.2733 84.7444 20.0389C84.7444 19.4773 84.6892 19.0441 84.58 18.7381H81.814V30.4453H85.0204V25.5145C85.0204 24.5905 85.5064 23.8861 86.248 23.8861C86.8 23.8861 87.1828 24.3349 87.1828 25.0609V30.4453H90.3892V24.7105C90.3892 22.3177 89.3452 21.1009 87.4396 21.1009H87.4384Z" fill="black"/>
<path d="M116.862 21.0649C115.445 21.0649 114.722 21.8725 114.317 22.6189C113.997 23.2093 113.95 23.7769 113.675 23.7769C113.541 23.7769 113.474 23.6977 113.474 23.5393C113.474 23.2585 113.84 22.7821 113.84 22.0009C113.84 21.6829 113.814 21.4453 113.766 21.2869H111.366V32.7925H114.591V29.1781C115 30.0517 115.857 30.6301 117.028 30.6301C119.14 30.6301 120.582 28.8877 120.582 25.8481C120.582 23.0437 119.246 21.0661 116.864 21.0661L116.862 21.0649ZM116.001 28.5217C115.354 28.5217 114.645 27.8509 114.645 26.1577C114.645 24.6829 115.224 23.8129 116.001 23.8129C116.894 23.8129 117.393 24.6733 117.393 26.1577C117.393 27.8077 116.818 28.5217 116.001 28.5217Z" fill="black"/>
<path d="M58.0456 21.0649C56.3896 21.0649 54.8728 21.4741 53.8192 21.9985V24.6517C55.0456 23.9893 56.3032 23.4985 57.406 23.4985C58.5868 23.4985 59.0872 24.1213 59.0164 24.9409C58.54 24.8917 58.0108 24.8713 57.3688 24.8713C54.8608 24.8713 53.2888 25.8505 53.2888 27.9817C53.2888 29.7325 54.652 30.6349 56.1436 30.6349C57.6352 30.6349 58.6 29.9389 59.1796 28.8901C59.5096 28.2925 59.482 27.9265 59.6968 27.9265C59.8024 27.9265 59.8756 28.0021 59.8756 28.1197C59.8756 28.5025 59.7664 28.7257 59.7664 29.2441C59.7664 29.7289 59.83 30.1369 59.9308 30.4333H62.236V25.5289C62.236 22.7437 60.9616 21.0637 58.0456 21.0637V21.0649ZM56.9656 28.3837C56.3704 28.3837 56.0512 28.1233 56.0512 27.6697C56.0512 27.0793 56.6068 26.6269 58.0456 26.6269C58.3624 26.6269 58.6492 26.6377 58.9096 26.6593C58.7824 27.5029 58.048 28.3837 56.9656 28.3837Z" fill="black"/>
<path d="M69.4768 12.6505V7.51093H67.27V12.3877C67.27 13.5961 66.4612 14.4037 65.3992 14.4037C64.3372 14.4037 63.5284 13.5949 63.5284 12.3877V7.51093H61.3252L61.3372 12.6505C61.3372 14.8885 63.1288 16.5253 65.4052 16.5253C67.6816 16.5253 69.4768 14.8921 69.4768 12.6505Z" fill="black"/>
<path d="M77.999 16.3477H80.2022V9.57493H82.8314V7.51093H75.3674V9.57493H77.999V16.3477Z" fill="black"/>
<path d="M73.9432 7.51453H71.74V16.3513H73.9432V7.51453Z" fill="black"/>
<path d="M55.0659 16.3477H57.2691V9.57493H59.8971V7.51093H52.4331V9.57493H55.0659V16.3477Z" fill="black"/>
<path d="M40.8699 11.9341V7.51453H38.6667V16.3501H40.8699V11.9341Z" fill="black"/>
<path d="M45.3353 11.4709C45.3353 10.2625 46.1441 9.45491 47.2061 9.45491C48.2681 9.45491 49.0769 10.2637 49.0769 11.4709V16.3477H51.2801L51.2741 11.2081C51.2729 8.96891 49.4789 7.33331 47.2025 7.33331C44.9261 7.33331 43.1309 8.96651 43.1309 11.2081V16.3477H45.3341V11.4709H45.3353Z" fill="black"/>
<path d="M107.207 21.0829C104.723 21.0829 104.68 23.7949 104.092 23.7949C103.97 23.7949 103.872 23.6869 103.872 23.5381C103.872 23.3401 103.924 23.1685 103.924 22.8481C103.924 21.8749 103.239 21.0829 101.802 21.0829C100.583 21.0829 99.6904 21.6937 99.1456 22.8229C98.8696 23.3953 98.8936 23.7937 98.614 23.7937C98.5108 23.7937 98.4304 23.6965 98.4304 23.5561C98.4304 23.1409 98.7964 22.7617 98.7964 21.8701C98.7964 21.6385 98.7784 21.4429 98.7412 21.2833H96.3772V30.4441H99.5836V25.4737C99.5836 24.4945 100.004 23.8669 100.72 23.8669C101.195 23.8669 101.618 24.2821 101.618 25.0417V30.4441H104.824V25.4737C104.824 24.3733 105.333 23.8669 105.96 23.8669C106.486 23.8669 106.858 24.3529 106.858 25.0417V30.4441H110.027V24.8197C110.027 22.3621 109.052 21.0817 107.206 21.0817L107.207 21.0829Z" fill="black"/>
<path d="M93.3375 21.9253C92.6655 21.9253 92.1339 21.8281 91.7439 21.6325V30.4453H94.9131V21.6325C94.5015 21.8137 94.0119 21.9253 93.3375 21.9253Z" fill="black"/>
<path d="M93.3196 18.6649C92.0092 18.6649 91.3228 19.2445 91.3228 19.9105C91.3228 20.6281 92.1352 21.1561 93.3196 21.1561C94.504 21.1561 95.3164 20.6281 95.3164 19.9105C95.3164 19.2445 94.6288 18.6649 93.3196 18.6649Z" fill="black"/>
<path d="M65.2599 21.9253C64.5879 21.9253 64.0563 21.8281 63.6663 21.6325V30.4453H66.8355V21.6325C66.4239 21.8137 65.9343 21.9253 65.2599 21.9253Z" fill="black"/>
<path d="M65.2419 18.6649C63.9315 18.6649 63.2451 19.2445 63.2451 19.9105C63.2451 20.6281 64.0575 21.1561 65.2419 21.1561C66.4263 21.1561 67.2387 20.6281 67.2387 19.9105C67.2387 19.2445 66.5511 18.6649 65.2419 18.6649Z" fill="black"/>
</g>
<defs>
<clipPath id="clip0_20034_17072">
<rect width="124" height="40" fill="white"/>
</clipPath>
</defs>
</svg>
