<svg width="154" height="40" viewBox="0 0 154 40" fill="none" xmlns="http://www.w3.org/2000/svg">
<g clip-path="url(#clip0_20034_17037)">
<path fill-rule="evenodd" clip-rule="evenodd" d="M38.6814 20.3759L35.7917 17.4918C35.6781 17.3788 35.588 17.2444 35.5265 17.0964C35.465 16.9484 35.4333 16.7897 35.4333 16.6294V13.0999C35.4333 9.83786 35.0945 8.65484 34.4547 7.46341C33.8291 6.28407 32.8632 5.32017 31.6826 4.69696C30.4884 4.05994 29.3026 3.71974 26.0363 3.71974H21.3616C21.3138 3.71907 21.2671 3.70439 21.2275 3.67751C21.1879 3.65063 21.157 3.61273 21.1387 3.5685C21.1204 3.52427 21.1154 3.47564 21.1244 3.42862C21.1334 3.3816 21.156 3.33825 21.1894 3.30393L24.0777 0.41987C24.3081 0.190099 24.6203 0.0611899 24.9457 0.0614628H26.5697C30.9266 0.0614628 32.5059 0.513672 34.0991 1.36349C35.6733 2.19453 36.9611 3.47992 37.7952 5.05256C38.6464 6.64159 39.1 8.21943 39.1 12.5679V20.2037C39.1001 20.2524 39.0857 20.3001 39.0587 20.3406C39.0316 20.3811 38.993 20.4126 38.9479 20.4311C38.9028 20.4496 38.8533 20.4542 38.8055 20.4444C38.7578 20.4345 38.7155 20.4107 38.6814 20.3759ZM18.745 38.67L21.6346 35.786C21.7487 35.6721 21.884 35.5819 22.033 35.5204C22.1819 35.4589 22.3415 35.4274 22.5026 35.4276H26.0363C29.304 35.4276 30.4884 35.0874 31.684 34.4504C32.8641 33.8268 33.8294 32.863 34.4547 31.6839C35.0931 30.4925 35.4347 29.3095 35.4347 26.0474V21.3825C35.4344 21.334 35.4486 21.2866 35.4755 21.2463C35.5023 21.2059 35.5406 21.1745 35.5854 21.156C35.6302 21.1375 35.6794 21.1328 35.7269 21.1425C35.7744 21.1521 35.8179 21.1758 35.8519 21.2103L38.7416 24.0943C38.8549 24.2076 38.9447 24.342 39.006 24.49C39.0672 24.638 39.0987 24.7966 39.0986 24.9568V26.5794C39.0986 30.9279 38.6464 32.5057 37.7938 34.0947C36.9594 35.6668 35.6716 36.9517 34.0977 37.7824C32.5058 38.6336 30.9252 39.0858 26.5683 39.0858H18.9186C18.8703 39.0861 18.823 39.072 18.7828 39.0453C18.7425 39.0187 18.7111 38.9807 18.6925 38.9361C18.6739 38.8915 18.6689 38.8425 18.6783 38.7951C18.6876 38.7477 18.7108 38.7042 18.745 38.67ZM3.30827 21.6555L0.418608 18.7714C0.384425 18.7371 0.340834 18.7137 0.293343 18.7041C0.245853 18.6946 0.196595 18.6993 0.151795 18.7177C0.106994 18.7362 0.068663 18.7675 0.0416449 18.8077C0.0146267 18.8479 0.000134578 18.8952 0 18.9436L0 26.5794C0 30.9279 0.453609 32.5043 1.30623 34.0947C2.14011 35.6667 3.4274 36.9515 5.0009 37.7824C6.59413 38.6336 8.17336 39.0858 12.5303 39.0858H14.1543C14.4797 39.0861 14.7919 38.9572 15.0223 38.7274L17.9106 35.8434C17.9447 35.8092 17.9679 35.7657 17.9773 35.7183C17.9866 35.671 17.9817 35.6219 17.9631 35.5773C17.9445 35.5328 17.913 35.4947 17.8728 35.4681C17.8325 35.4414 17.7852 35.4273 17.737 35.4276H13.0637C9.796 35.4276 8.61157 35.0874 7.41595 34.4504C6.23535 33.8271 5.26949 32.8632 4.64389 31.6839C4.00548 30.4911 3.66527 29.3095 3.66527 26.0474V22.5165C3.66528 22.3566 3.63376 22.1982 3.5725 22.0505C3.51124 21.9027 3.42145 21.7685 3.30827 21.6555ZM20.355 0.477271L17.4654 3.36133C17.3513 3.47516 17.2159 3.56541 17.067 3.62691C16.9181 3.6884 16.7585 3.71995 16.5973 3.71974H13.0651C9.7974 3.71974 8.61297 4.05994 7.41735 4.69696C6.23675 5.32017 5.27089 6.28407 4.64529 7.46341C4.00688 8.65484 3.66667 9.83786 3.66667 13.0999V17.7648C3.66654 17.8133 3.65205 17.8606 3.62503 17.9008C3.59801 17.941 3.55968 17.9723 3.51488 17.9907C3.47008 18.0092 3.42082 18.0139 3.37333 18.0043C3.32584 17.9948 3.28225 17.9713 3.24806 17.937L0.358407 15.0516C0.245034 14.9386 0.155028 14.8045 0.0935305 14.6567C0.0320332 14.509 0.000251001 14.3506 0 14.1905L0 12.5679C0 8.21943 0.453609 6.64159 1.30623 5.05256C2.14018 3.48069 3.42745 2.19586 5.0009 1.36489C6.59413 0.513672 8.17336 0.0614628 12.5303 0.0614628H20.1814C20.2294 0.0618625 20.2762 0.0763481 20.316 0.103121C20.3559 0.129895 20.387 0.167777 20.4055 0.212064C20.4239 0.256352 20.429 0.305095 20.4201 0.352243C20.4111 0.39939 20.3885 0.442865 20.355 0.477271ZM28.6362 10.5407L32.5759 14.2997C32.6105 14.3329 32.6541 14.3552 32.7013 14.3638C32.7484 14.3724 32.7971 14.367 32.8412 14.3482C32.8853 14.3294 32.923 14.2981 32.9495 14.2581C32.976 14.2182 32.9901 14.1713 32.9903 14.1233V11.0363C32.9888 9.74139 32.4731 8.50011 31.5565 7.5854C30.64 6.6707 29.3977 6.15747 28.1028 6.15859H18.8346C18.5103 6.15868 18.1993 6.28702 17.9694 6.51559L15.0769 9.39965C15.0423 9.43373 15.0186 9.47737 15.009 9.52499C14.9994 9.5726 15.0042 9.62201 15.0229 9.66686C15.0415 9.71171 15.0732 9.74995 15.1137 9.77668C15.1543 9.80341 15.2019 9.8174 15.2505 9.81686H26.8805C27.1857 9.81686 27.4769 9.87286 27.7444 9.97366C28.0706 10.0913 28.3744 10.2817 28.6362 10.5407ZM24.8323 32.5799L28.5984 28.6458C28.8602 28.3854 29.0492 28.0816 29.1682 27.7568C29.269 27.4894 29.325 27.1982 29.325 26.8944V15.2868C29.3251 15.2383 29.3396 15.191 29.3666 15.1508C29.3937 15.1106 29.432 15.0793 29.4768 15.0609C29.5216 15.0424 29.5708 15.0377 29.6183 15.0473C29.6658 15.0568 29.7094 15.0802 29.7436 15.1146L32.6333 18.0014C32.8617 18.2297 32.9901 18.5395 32.9903 18.8624V28.1138C32.9891 29.4087 32.4738 30.6501 31.5575 31.5651C30.6412 32.4801 29.3991 32.9937 28.1042 32.9929H25.0101C24.9623 32.9928 24.9156 32.9787 24.8757 32.9524C24.8358 32.9261 24.8045 32.8887 24.7856 32.8448C24.7667 32.8009 24.761 32.7524 24.7693 32.7054C24.7776 32.6583 24.7995 32.6147 24.8323 32.5799ZM10.4638 28.6052L6.52413 24.8476C6.48958 24.8145 6.4461 24.7923 6.39906 24.7836C6.35201 24.7749 6.30347 24.7802 6.2594 24.7989C6.21534 24.8175 6.17769 24.8486 6.15109 24.8883C6.12449 24.9281 6.11011 24.9747 6.10972 25.0226V28.111C6.11121 29.4059 6.62693 30.6472 7.54347 31.5619C8.46002 32.4766 9.70233 32.9898 10.9972 32.9887H20.2654C20.5899 32.9884 20.901 32.8595 21.1306 32.6303L24.0231 29.7463C24.0572 29.7121 24.0804 29.6686 24.0898 29.6212C24.0991 29.5738 24.0942 29.5248 24.0756 29.4802C24.057 29.4356 24.0255 29.3976 23.9853 29.371C23.945 29.3443 23.8978 29.3302 23.8495 29.3305H12.2194C11.9142 29.3305 11.623 29.2745 11.3542 29.1736C11.0194 29.0516 10.7155 28.8576 10.4638 28.6052ZM14.2677 6.57019L10.5016 10.5043C10.2493 10.7554 10.0552 11.0589 9.9332 11.3933C9.831 11.6621 9.775 11.9533 9.775 12.2557V23.8647C9.77526 23.9134 9.76097 23.961 9.73396 24.0014C9.70695 24.0418 9.66845 24.0733 9.62343 24.0916C9.5784 24.11 9.52891 24.1145 9.48131 24.1045C9.43372 24.0945 9.39022 24.0705 9.35639 24.0355L6.46813 21.1515C6.23967 20.9232 6.11126 20.6135 6.11112 20.2905V11.0363C6.11261 9.74139 6.62833 8.50011 7.54487 7.5854C8.46141 6.6707 9.70373 6.15747 10.9986 6.15859H14.0927C14.1401 6.15921 14.1863 6.17357 14.2257 6.19992C14.2651 6.22627 14.296 6.26349 14.3147 6.30706C14.3333 6.35063 14.339 6.39867 14.3309 6.44538C14.3228 6.49209 14.3013 6.53544 14.2691 6.57019H14.2677ZM51.2718 11.9295H50.3254C49.5386 11.9295 48.9002 12.5651 48.9002 13.3491V33.3975C48.9002 34.1829 49.5386 34.8186 50.3254 34.8186H51.2004C51.9886 34.8186 52.6271 34.1829 52.6271 33.3989V25.5658C52.6271 25.514 52.6691 25.4734 52.7195 25.4734C52.9071 25.731 53.1451 25.9956 53.4335 26.2644C53.7247 26.5346 54.0775 26.788 54.4905 27.0246C54.9049 27.2626 55.3809 27.4558 55.9185 27.607C56.4575 27.7568 57.0791 27.8324 57.7834 27.8324C58.7702 27.8433 59.7475 27.6377 60.6464 27.2301C61.5452 26.8226 62.3438 26.2229 62.9859 25.4734C63.6342 24.7104 64.1342 23.8329 64.4601 22.8861C64.8129 21.8949 64.9879 20.8281 64.9879 19.6857C64.997 18.599 64.8296 17.5182 64.4923 16.4852C64.1838 15.5337 63.6872 14.6538 63.0321 13.8979C62.3869 13.163 61.5928 12.5736 60.7024 12.1689C59.7924 11.7489 58.7662 11.5389 57.628 11.5389C56.5709 11.5389 55.5881 11.7531 54.6767 12.1843C53.7667 12.6155 53.0415 13.3043 52.5025 14.2535C52.4944 14.2535 52.4864 14.252 52.4789 14.2489C52.4714 14.2458 52.4646 14.2412 52.4589 14.2355C52.4532 14.2298 52.4486 14.223 52.4455 14.2155C52.4424 14.208 52.4409 14.2 52.4409 14.1919V13.0915C52.4405 12.9384 52.41 12.7868 52.351 12.6454C52.2921 12.5041 52.2058 12.3757 52.0973 12.2677C51.9887 12.1597 51.86 12.0741 51.7183 12.0158C51.5767 11.9575 51.425 11.9277 51.2718 11.9281V11.9295ZM60.967 17.9426C61.163 18.5026 61.261 19.085 61.261 19.6885C61.261 20.2919 61.163 20.8743 60.967 21.4343C60.7794 21.9837 60.4835 22.4899 60.0968 22.923C59.7101 23.3561 59.2405 23.7073 58.7158 23.9557C58.1768 24.2147 57.565 24.3436 56.8817 24.3436C56.2748 24.3541 55.6728 24.2324 55.1177 23.9867C54.5626 23.7411 54.0676 23.3775 53.6673 22.9211C53.2827 22.4874 52.9873 21.9822 52.7979 21.4343C52.6019 20.8743 52.5038 20.2919 52.5038 19.6885C52.5038 19.085 52.6019 18.5026 52.7979 17.9426C52.9854 17.3932 53.2813 16.8869 53.668 16.4538C54.0547 16.0207 54.5243 15.6696 55.0491 15.4212C55.5881 15.1622 56.1985 15.0334 56.8831 15.0334C57.4899 15.0229 58.0916 15.1447 58.6465 15.3903C59.2014 15.636 59.6961 15.9996 60.0962 16.4558C60.4798 16.887 60.7696 17.3826 60.967 17.9426ZM71.4266 11.9295H70.3598C69.5716 11.9295 68.9332 12.5651 68.9332 13.3491V26.0278C68.9332 26.8118 69.5716 27.4474 70.3598 27.4474H71.2348C72.0216 27.4474 72.6601 26.8118 72.6601 26.0278V19.1396C72.6601 18.9226 72.7063 18.5992 72.8001 18.168C72.8939 17.7382 73.0801 17.307 73.3601 16.8758C73.6401 16.4446 74.0419 16.0624 74.5711 15.7278C75.0989 15.3932 75.7975 15.2266 76.6669 15.2266C76.9567 15.2266 77.2522 15.2546 77.5518 15.3078C77.6636 15.328 77.7785 15.3235 77.8884 15.2946C77.9983 15.2656 78.1005 15.2129 78.1878 15.1401C78.2751 15.0674 78.3454 14.9764 78.3937 14.8735C78.442 14.7706 78.4671 14.6584 78.4674 14.5448V12.4167C78.4677 12.2251 78.4015 12.0393 78.2799 11.8911C78.1583 11.743 77.989 11.6417 77.801 11.6047C77.5809 11.5619 77.3573 11.5408 77.1331 11.5417C76.1391 11.5417 75.2585 11.7895 74.4927 12.2837C73.7269 12.7807 73.1361 13.4807 72.7231 14.3866C72.7147 14.3867 72.7065 14.3852 72.6987 14.3821C72.691 14.379 72.684 14.3744 72.6781 14.3685C72.6722 14.3626 72.6676 14.3556 72.6645 14.3479C72.6614 14.3402 72.6599 14.3319 72.6601 14.3235V13.1573C72.6589 12.8313 72.5286 12.519 72.2977 12.2889C72.0668 12.0587 71.7527 11.9295 71.4266 11.9295ZM83.8449 11.9295H82.9699C82.1816 11.9295 81.5432 12.5651 81.5432 13.3491V26.0278C81.5432 26.8118 82.1816 27.4474 82.9699 27.4474H83.8449C84.6317 27.4474 85.2701 26.8118 85.2701 26.0278V13.3477C85.2701 12.5637 84.6317 11.9281 83.8449 11.9281V11.9295ZM81.6832 5.02736C81.238 5.48937 81.0154 6.03398 81.0154 6.6584C81.0154 7.28421 81.238 7.82882 81.6832 8.29223C82.1284 8.75424 82.6927 8.98664 83.3773 8.98664C84.0591 8.98664 84.6345 8.76544 85.0993 8.32443C85.5655 7.88202 85.7993 7.32761 85.7993 6.6584C85.8072 6.34718 85.7488 6.03784 85.6282 5.75087C85.5075 5.4639 85.3272 5.20583 85.0993 4.99376C84.6345 4.55275 84.0591 4.33155 83.3773 4.33155C82.6927 4.33155 82.1284 4.56395 81.6832 5.02736ZM95.0535 14.6456C95.6443 14.6456 96.3177 14.9214 97.0737 15.4758C97.6282 15.8818 98.394 15.8356 98.8952 15.3652L99.36 14.9312C99.5086 14.7923 99.6256 14.6231 99.703 14.4351C99.7804 14.247 99.8164 14.0445 99.8085 13.8413C99.8007 13.638 99.7492 13.4389 99.6576 13.2573C99.5659 13.0758 99.4363 12.9161 99.2774 12.7891C98.8434 12.4419 98.4514 12.2039 98.0986 12.0751C97.154 11.7246 96.1548 11.544 95.1473 11.5417C94.4025 11.5417 93.6675 11.6383 92.9423 11.8315C92.2497 12.0106 91.5967 12.3179 91.0172 12.7373C90.4572 13.1461 90.0078 13.6697 89.6662 14.3054C89.3232 14.941 89.1538 15.6914 89.1538 16.5524C89.1538 17.5436 89.3498 18.3192 89.7432 18.8806C90.1366 19.4407 90.6336 19.8775 91.2342 20.1897C91.8459 20.5061 92.4991 20.7347 93.1747 20.8687C93.8691 21.0087 94.5159 21.1599 95.1165 21.3209C95.7171 21.4833 96.2141 21.6933 96.6075 21.9509C96.9995 22.2099 97.197 22.6089 97.197 23.1479C97.2031 23.4297 97.1219 23.7065 96.9645 23.9403C96.8105 24.1657 96.6075 24.3548 96.3583 24.506C96.1105 24.6572 95.8403 24.765 95.5519 24.828C95.2621 24.8938 94.9821 24.926 94.7119 24.926C93.9265 24.926 93.2587 24.7482 92.7099 24.3926C92.5033 24.2535 92.3068 24.1 92.1218 23.9333C91.8511 23.6965 91.5011 23.5703 91.1415 23.5799C90.7819 23.5895 90.4391 23.7342 90.1814 23.9851L89.795 24.3632C89.6491 24.5053 89.5356 24.6772 89.4621 24.8672C89.3887 25.0571 89.3571 25.2607 89.3694 25.464C89.3818 25.6673 89.4378 25.8655 89.5337 26.0452C89.6296 26.2249 89.7632 26.3818 89.9252 26.5052C90.4572 26.9112 90.915 27.1828 91.2972 27.3172C92.2688 27.663 93.3357 27.8352 94.4949 27.8352C95.2621 27.8352 96.0279 27.7498 96.7937 27.5776C97.5255 27.4193 98.2243 27.1351 98.8588 26.7376C99.4697 26.3495 99.9805 25.8228 100.35 25.2004C100.733 24.5648 100.924 23.7835 100.924 22.8567C100.924 21.8431 100.728 21.0465 100.336 20.4641C99.9547 19.894 99.4431 19.4232 98.8434 19.0906C98.2345 18.7534 97.5813 18.5031 96.9029 18.3472C96.2543 18.1965 95.607 18.0402 94.9611 17.8782C94.443 17.758 93.9421 17.5731 93.4701 17.328C93.0781 17.1124 92.8807 16.768 92.8807 16.2934C92.8807 15.7124 93.1187 15.291 93.5947 15.0334C94.0408 14.7826 94.5418 14.6492 95.0535 14.6456ZM106.238 11.9295H105.55C104.763 11.9295 104.124 12.5651 104.124 13.3491V26.0278C104.124 26.8118 104.763 27.4474 105.55 27.4474H106.425C107.213 27.4474 107.851 26.8118 107.851 26.0278V18.9772C107.851 18.4592 107.913 17.9636 108.037 17.4904C108.153 17.0337 108.359 16.6048 108.644 16.229C108.924 15.8622 109.274 15.571 109.699 15.3568C110.123 15.1398 110.646 15.0334 111.267 15.0334C112.179 15.0334 112.831 15.319 113.224 15.8888C113.618 16.46 113.814 17.2314 113.814 18.2016V26.0278C113.814 26.8118 114.454 27.4474 115.242 27.4474H116.116C116.904 27.4474 117.542 26.8118 117.542 26.0278V19.0416C117.542 18.546 117.598 18.056 117.713 17.5716C117.817 17.1093 118.006 16.6705 118.272 16.278C118.531 15.9 118.862 15.599 119.266 15.3722C119.669 15.1454 120.162 15.0334 120.741 15.0334C121.3 15.0334 121.755 15.13 122.108 15.3232C122.452 15.5096 122.741 15.7828 122.946 16.1156C123.153 16.4502 123.298 16.838 123.38 17.2804C123.464 17.7214 123.506 18.1792 123.506 18.6538V26.0278C123.506 26.8118 124.143 27.4474 124.932 27.4474H125.807C126.593 27.4474 127.232 26.8118 127.232 26.0278V18.2016C127.232 17.2748 127.139 16.4068 126.952 15.5976C126.787 14.8392 126.476 14.1201 126.036 13.4807C125.609 12.8754 125.038 12.3865 124.374 12.0583C123.691 11.7139 122.852 11.5403 121.858 11.5403C120.741 11.5403 119.778 11.7727 118.97 12.2361C118.162 12.6995 117.49 13.4261 116.951 14.4188C116.186 12.5007 114.633 11.5417 112.292 11.5417C111.05 11.5417 110.062 11.8273 109.327 12.3971C108.64 12.9238 108.073 13.5911 107.665 14.3544V13.3491C107.665 12.5651 107.027 11.9295 106.238 11.9295ZM134.13 11.9295H133.255C132.468 11.9295 131.829 12.5651 131.829 13.3491V26.0278C131.829 26.8118 132.468 27.4474 133.255 27.4474H134.13C134.918 27.4474 135.556 26.8118 135.556 26.0278V13.3477C135.556 12.5637 134.918 11.9281 134.13 11.9281V11.9295ZM131.969 5.02736C131.524 5.48937 131.302 6.03398 131.302 6.6584C131.302 7.28421 131.524 7.82882 131.969 8.29223C132.415 8.75424 132.977 8.98664 133.662 8.98664C134.345 8.98664 134.919 8.76544 135.384 8.32443C135.852 7.88202 136.084 7.32761 136.084 6.6584C136.092 6.34718 136.034 6.03784 135.913 5.75087C135.792 5.4639 135.612 5.20583 135.384 4.99376C134.919 4.55275 134.345 4.33155 133.662 4.33155C132.977 4.33155 132.415 4.56255 131.968 5.02596L131.969 5.02736ZM149.13 15.4534C149.246 15.522 149.38 15.6158 149.534 15.7348C150.111 16.1856 150.937 16.1268 151.444 15.599L152.019 14.9984C152.159 14.8532 152.266 14.68 152.333 14.4902C152.401 14.3003 152.427 14.0983 152.41 13.8976C152.393 13.6969 152.334 13.5021 152.236 13.3261C152.138 13.1502 152.003 12.9972 151.841 12.8773C151.343 12.5077 150.909 12.2501 150.542 12.1073C149.629 11.7397 148.654 11.5479 147.669 11.5417C146.551 11.5417 145.495 11.7349 144.501 12.1227C143.507 12.5105 142.649 13.0607 141.924 13.7719C141.184 14.5054 140.598 15.3794 140.2 16.3424C139.776 17.3448 139.563 18.4592 139.563 19.6885C139.563 20.9177 139.775 22.0321 140.2 23.0345C140.598 23.9976 141.184 24.8715 141.924 25.605C142.649 26.3162 143.507 26.865 144.501 27.2542C145.495 27.642 146.551 27.8352 147.669 27.8352C148.001 27.8352 148.395 27.7974 148.85 27.7232C149.872 27.5489 150.856 27.1933 151.753 26.6732C151.928 26.5733 152.078 26.4357 152.192 26.2705C152.307 26.1052 152.383 25.9165 152.415 25.718C152.447 25.5196 152.435 25.3164 152.378 25.1234C152.322 24.9304 152.223 24.7525 152.089 24.6026L151.522 23.9683C151.285 23.7038 150.959 23.5367 150.605 23.4997C150.252 23.4627 149.898 23.5584 149.611 23.7681C149.494 23.8535 149.386 23.9221 149.285 23.9725C148.783 24.2213 148.23 24.3484 147.669 24.3436C146.986 24.3436 146.376 24.2147 145.837 23.9557C145.312 23.7067 144.843 23.3554 144.456 22.9224C144.07 22.4894 143.774 21.9834 143.585 21.4343C143.388 20.8734 143.288 20.283 143.29 19.6885C143.29 19.085 143.388 18.5026 143.585 17.9426C143.774 17.3935 144.07 16.8875 144.456 16.4545C144.843 16.0215 145.312 15.6702 145.837 15.4212C146.41 15.155 147.037 15.0224 147.669 15.0334C148.166 15.0334 148.654 15.1734 149.13 15.4534Z" fill="black"/>
</g>
<defs>
<clipPath id="clip0_20034_17037">
<rect width="153.171" height="40" fill="white"/>
</clipPath>
</defs>
</svg>
