<svg width="97" height="40" viewBox="0 0 97 40" fill="none" xmlns="http://www.w3.org/2000/svg">
<g clip-path="url(#clip0_20034_17052)">
<path fill-rule="evenodd" clip-rule="evenodd" d="M96.349 23.0695H83.3279C83.6349 26.1874 85.9128 27.189 88.4976 27.189C91.147 27.189 93.2795 26.5913 95.0404 25.6543V31.0178C92.8057 32.3036 90.2488 32.9204 87.6737 32.7948C81.1955 32.7948 76.6397 28.7561 76.6397 20.7108C76.6397 13.9418 80.5008 8.5622 86.8175 8.5622C93.1502 8.5622 96.4459 13.8611 96.4459 20.6785C96.4459 21.3247 96.3813 22.7141 96.349 23.0695ZM86.7851 13.9903C85.1212 13.9903 83.2795 15.1696 83.2795 18.1583H90.1454C90.1454 15.1696 88.4168 13.9903 86.7851 13.9903ZM66.1551 32.7948C63.8288 32.7948 62.4071 31.8255 61.4701 31.1147L61.4378 38.5945L54.7819 40V8.99838H60.8562L60.9855 10.6462C62.3943 9.30984 64.2617 8.56405 66.2036 8.5622C70.8885 8.5622 75.2827 12.7625 75.2827 20.517C75.2827 28.9661 70.9208 32.7948 66.1551 32.7948ZM64.6204 14.4588C63.0856 14.4588 62.1325 15.0081 61.4378 15.7674L61.4701 25.6543C62.1163 26.3651 63.0533 26.9144 64.6204 26.9144C67.0759 26.9144 68.7237 24.2488 68.7237 20.6624C68.7237 17.189 67.0436 14.4588 64.6204 14.4588ZM45.622 8.99838H52.294V32.3263H45.622V8.99838ZM45.622 1.40549L52.294 0V5.42811L45.622 6.84976V1.42165V1.40549ZM38.643 16.5105V32.3263H31.9871V8.99838H37.9645L38.1583 10.9693C39.7738 8.10985 43.1179 8.69144 44.0065 8.99838V15.1212C43.1664 14.8465 40.3069 14.4265 38.643 16.5105ZM24.8304 24.1357C24.8304 28.0614 29.0307 26.8498 29.8708 26.4943V31.9225C28.9822 32.4071 27.3829 32.7948 25.2019 32.7948C24.293 32.8213 23.3881 32.6627 22.5424 32.3284C21.6966 31.9942 20.9278 31.4914 20.2825 30.8507C19.6372 30.21 19.129 29.4446 18.7888 28.6013C18.4487 27.7579 18.2836 26.8542 18.3037 25.9451L18.3199 4.66882L24.8142 3.27948V8.99838H29.8869V14.7011H24.8304V24.1519V24.1357ZM16.8982 25.2666C16.8982 30.0646 13.1664 32.7948 7.64136 32.7948C5.16206 32.793 2.70961 32.2816 0.436187 31.2924V24.9435C2.66559 26.1551 5.44426 27.0598 7.64136 27.0598C9.12763 27.0598 10.1131 26.6721 10.1131 25.4443C10.1131 22.2456 0 23.441 0 16.0743C0 11.3732 3.68336 8.5622 9.07916 8.5622C11.2763 8.5622 13.4733 8.8853 15.6866 9.77383V16.042C13.6413 14.9656 11.3737 14.3793 9.06301 14.3296C7.67367 14.3296 6.73667 14.7334 6.73667 15.7835C6.73667 18.7722 16.8982 17.3506 16.8982 25.2827V25.2666Z" fill="black"/>
</g>
<defs>
<clipPath id="clip0_20034_17052">
<rect width="97" height="40" fill="white"/>
</clipPath>
</defs>
</svg>
