<svg width="185" height="40" viewBox="0 0 185 40" fill="none" xmlns="http://www.w3.org/2000/svg">
<g clip-path="url(#clip0_20063_2871)">
<path d="M47.1973 15.984V11.48C47.1973 11.284 47.2536 11.12 47.3938 11.008C47.534 10.896 47.6704 10.84 47.867 10.84H50.0674C50.2639 10.84 50.4281 10.896 50.5405 11.008C50.6525 11.12 50.7089 11.284 50.7089 11.48V15.984H55.4704C55.667 15.984 55.8312 16.04 55.9436 16.152C56.0559 16.264 56.1119 16.428 56.1119 16.624V18.18C56.1119 18.376 56.0559 18.54 55.9154 18.68C55.7752 18.82 55.6388 18.876 55.4426 18.876H50.7089V24.768C50.7089 25.548 50.8491 26.128 51.1256 26.52C51.4022 26.912 51.851 27.104 52.4883 27.104H55.7192C55.8876 27.104 56.0517 27.16 56.1919 27.3C56.3325 27.44 56.3885 27.576 56.3885 27.772V29.44C56.3885 29.636 56.3325 29.772 56.2201 29.912C56.1077 30.052 55.9436 30.108 55.747 30.108H52.1557C50.5123 30.108 49.2578 29.692 48.4521 28.828C47.6182 27.968 47.2255 26.716 47.2255 25.048V18.88L47.1973 15.988V15.984Z" fill="black"/>
<path d="M59.7032 28.6C58.5047 27.432 57.8914 25.792 57.8114 23.68L57.7832 23.012L57.8114 22.344C57.8956 20.288 58.5367 18.676 59.7314 17.48C60.9299 16.312 62.5173 15.728 64.4933 15.728C66.6377 15.728 68.2811 16.368 69.4514 17.672C70.6221 18.98 71.2072 20.7 71.2072 22.868V23.424C71.2072 23.62 71.1508 23.756 71.0106 23.896C70.8704 24.036 70.7341 24.092 70.5097 24.092H61.515V24.316C61.5432 25.316 61.8198 26.152 62.3489 26.816C62.8781 27.48 63.5752 27.844 64.4933 27.844C65.5516 27.844 66.4133 27.428 67.0826 26.592C67.251 26.396 67.387 26.26 67.4712 26.204C67.5836 26.148 67.7238 26.12 67.9162 26.12H70.2571C70.4255 26.12 70.5619 26.176 70.6739 26.26C70.7863 26.372 70.8423 26.484 70.8423 26.62C70.8423 27.064 70.5897 27.564 70.0605 28.148C69.5318 28.732 68.8061 29.26 67.8602 29.676C66.8861 30.12 65.7718 30.316 64.5173 30.316C62.4849 30.344 60.8697 29.76 59.6994 28.592L59.7032 28.6ZM67.4956 21.812V21.728C67.4956 20.672 67.219 19.812 66.6899 19.144C66.1607 18.504 65.4072 18.172 64.4613 18.172C63.515 18.172 62.7897 18.504 62.2605 19.144C61.7314 19.784 61.4788 20.644 61.4788 21.728V21.812H67.4956Z" fill="black"/>
<path d="M75.4359 28.7121C74.2374 27.6001 73.6241 26.0721 73.5441 24.1281L73.5159 23.0441L73.5441 21.9601C73.6282 20.0161 74.2416 18.4881 75.4359 17.3761C76.6343 16.2641 78.2218 15.7361 80.1978 15.7361C81.6168 15.7361 82.8153 15.9881 83.789 16.4881C84.7631 16.9881 85.5166 17.6001 85.9898 18.3521C86.4625 19.0761 86.7151 19.7681 86.7715 20.4361C86.7993 20.6041 86.7151 20.7681 86.6031 20.9081C86.4625 21.0481 86.2983 21.1041 86.13 21.1041H83.733C83.5368 21.1041 83.4004 21.0481 83.3162 20.9921C83.2039 20.9081 83.1197 20.7681 83.0397 20.5761C82.7631 19.8801 82.3982 19.3521 81.9536 19.0481C81.5086 18.7441 80.9513 18.5761 80.2538 18.5761C79.3361 18.5761 78.6103 18.8801 78.0816 19.4641C77.5524 20.0481 77.2759 20.9361 77.2477 22.1321L77.2195 23.1321L77.2477 24.0201C77.3319 26.3841 78.3338 27.5761 80.2538 27.5761C80.9513 27.5761 81.5364 27.4081 81.9814 27.1041C82.4263 26.8001 82.7631 26.3001 83.0397 25.5761C83.1239 25.3801 83.2359 25.2441 83.3162 25.1601C83.4286 25.0761 83.5688 25.0481 83.733 25.0481H86.13C86.2983 25.0481 86.4625 25.1041 86.6031 25.2441C86.7433 25.3841 86.7993 25.5201 86.7715 25.7161C86.7433 26.3561 86.4949 27.0241 86.018 27.7441C85.5448 28.4681 84.8195 29.0761 83.8454 29.6081C82.8713 30.1361 81.6446 30.3881 80.1978 30.3881C78.1936 30.3601 76.6065 29.8041 75.4359 28.7201" fill="black"/>
<path d="M89.8057 29.908C89.6651 29.768 89.6091 29.632 89.6091 29.436V11.48C89.6091 11.284 89.6651 11.12 89.8057 11.008C89.9459 10.896 90.0823 10.84 90.2785 10.84H92.6994C92.896 10.84 93.0602 10.896 93.1726 11.008C93.2846 11.12 93.3409 11.284 93.3409 11.48V17.648C94.427 16.34 95.9021 15.704 97.7421 15.704C99.4133 15.704 100.748 16.26 101.726 17.344C102.728 18.428 103.229 19.928 103.229 21.792V29.408C103.229 29.604 103.173 29.74 103.061 29.88C102.949 30.02 102.784 30.076 102.588 30.076H100.139C99.9425 30.076 99.8061 30.02 99.6659 29.88C99.5257 29.74 99.4693 29.604 99.4693 29.408V21.988C99.4693 20.932 99.2171 20.1 98.688 19.516C98.1588 18.932 97.4331 18.628 96.4594 18.628C95.4853 18.628 94.7318 18.932 94.1745 19.516C93.6175 20.1 93.3409 20.932 93.3409 21.988V29.436C93.3409 29.632 93.2846 29.768 93.1726 29.908C93.0602 30.048 92.896 30.104 92.6994 30.104H90.2785C90.0823 30.076 89.9459 30.02 89.8057 29.908Z" fill="black"/>
<path d="M106.849 20.18C106.849 17.872 108.741 15.984 111.053 15.984H116.26C116.457 15.984 116.621 16.04 116.733 16.152C116.845 16.264 116.902 16.428 116.902 16.624V18.18C116.902 18.376 116.845 18.54 116.705 18.68C116.565 18.82 116.429 18.876 116.232 18.876H112.248C111.246 18.876 110.408 19.68 110.408 20.712V29.468C110.408 29.664 110.352 29.8 110.212 29.94C110.071 30.08 109.935 30.136 109.739 30.136H107.51C107.314 30.136 107.178 30.08 107.037 29.94C106.897 29.8 106.841 29.664 106.841 29.468V20.184L106.849 20.18Z" fill="black"/>
<path d="M119.996 29.796C119.214 29.436 118.633 28.936 118.184 28.296C117.739 27.656 117.515 26.964 117.515 26.212C117.515 24.988 118.016 23.988 119.018 23.24C120.02 22.488 121.387 21.96 123.11 21.684L126.842 21.156V20.6C126.842 19.796 126.646 19.212 126.257 18.82C125.868 18.428 125.227 18.236 124.337 18.236C123.752 18.236 123.251 18.348 122.89 18.568C122.529 18.792 122.221 19.012 122 19.236C121.776 19.46 121.639 19.624 121.555 19.708C121.471 19.932 121.359 20.04 121.138 20.04H119.05C118.882 20.04 118.745 19.984 118.633 19.872C118.521 19.76 118.465 19.62 118.465 19.428C118.493 18.984 118.717 18.456 119.134 17.872C119.551 17.288 120.221 16.788 121.11 16.372C122 15.956 123.086 15.76 124.369 15.76C126.513 15.76 128.073 16.232 129.046 17.204C130.021 18.148 130.521 19.428 130.521 20.984V29.488C130.521 29.684 130.465 29.82 130.353 29.96C130.241 30.1 130.077 30.156 129.88 30.156H127.68C127.483 30.156 127.347 30.1 127.207 29.96C127.067 29.82 127.01 29.684 127.01 29.488V28.432C126.622 29.016 126.037 29.488 125.311 29.848C124.585 30.208 123.667 30.404 122.581 30.404C121.607 30.348 120.769 30.18 119.992 29.792L119.996 29.796ZM125.896 26.792C126.537 26.152 126.842 25.18 126.842 23.956V23.372L124.112 23.816C123.054 23.984 122.273 24.232 121.744 24.596C121.214 24.956 120.938 25.4 120.938 25.928C120.938 26.512 121.19 26.956 121.663 27.288C122.165 27.62 122.75 27.788 123.419 27.788C124.449 27.788 125.287 27.456 125.896 26.788" fill="black"/>
<path d="M137.428 28.436V29.436C137.428 29.632 137.372 29.768 137.259 29.908C137.147 30.048 136.983 30.104 136.787 30.104H134.642C134.474 30.104 134.309 30.048 134.169 29.908C134.029 29.768 133.973 29.632 133.973 29.436V11.48C133.973 11.284 134.029 11.12 134.169 11.008C134.309 10.896 134.446 10.84 134.642 10.84H136.955C137.151 10.84 137.316 10.896 137.428 11.008C137.54 11.12 137.596 11.284 137.596 11.48V17.512C138.626 16.316 140.017 15.732 141.773 15.732C143.528 15.732 145.003 16.316 145.977 17.512C146.952 18.708 147.481 20.264 147.565 22.152C147.593 22.376 147.593 22.652 147.593 23.012C147.593 23.4 147.593 23.68 147.565 23.9C147.481 25.844 146.952 27.4 145.977 28.596C145.003 29.764 143.609 30.348 141.773 30.348C139.905 30.348 138.458 29.708 137.428 28.432V28.436ZM143.889 23.848C143.917 23.68 143.917 23.404 143.917 23.044C143.917 22.684 143.917 22.404 143.889 22.24C143.749 19.848 142.719 18.628 140.771 18.628C139.769 18.628 138.987 18.96 138.458 19.6C137.929 20.24 137.653 21.016 137.596 21.908L137.568 22.936L137.596 23.992C137.653 24.964 137.929 25.8 138.43 26.464C138.931 27.132 139.713 27.464 140.771 27.464C142.719 27.464 143.777 26.268 143.889 23.852" fill="black"/>
<path d="M150.795 29.908C150.655 29.768 150.599 29.632 150.599 29.436V16.68C150.599 16.512 150.655 16.348 150.795 16.208C150.936 16.068 151.072 16.012 151.268 16.012H153.469C153.665 16.012 153.83 16.068 153.97 16.208C154.11 16.348 154.166 16.484 154.166 16.708V17.82C154.611 17.236 155.14 16.792 155.81 16.488C156.479 16.184 157.229 16.016 158.067 16.016H159.181C159.377 16.016 159.542 16.072 159.654 16.184C159.766 16.296 159.822 16.46 159.822 16.656V18.6C159.822 18.796 159.766 18.932 159.654 19.072C159.542 19.212 159.377 19.268 159.181 19.268H157.064C156.203 19.268 155.533 19.52 155.06 19.992C154.559 20.492 154.335 21.16 154.335 21.992V29.44C154.335 29.636 154.279 29.772 154.138 29.912C153.998 30.052 153.862 30.108 153.637 30.108H151.268C151.072 30.08 150.936 30.024 150.795 29.912" fill="black"/>
<path d="M162.019 13.484C161.879 13.344 161.823 13.208 161.823 13.012V11.068C161.823 10.9 161.879 10.736 162.019 10.596C162.159 10.456 162.295 10.4 162.492 10.4H164.969C165.165 10.4 165.302 10.456 165.442 10.596C165.582 10.736 165.638 10.872 165.638 11.068V13.012C165.638 13.18 165.582 13.344 165.442 13.484C165.302 13.624 165.165 13.68 164.941 13.68H162.464C162.295 13.652 162.131 13.596 162.019 13.484ZM162.131 29.908C161.991 29.768 161.935 29.632 161.935 29.436V16.652C161.935 16.484 161.991 16.32 162.131 16.18C162.271 16.04 162.408 15.984 162.604 15.984H164.861C165.057 15.984 165.221 16.04 165.334 16.152C165.446 16.264 165.502 16.428 165.502 16.624V29.408C165.502 29.604 165.446 29.74 165.334 29.88C165.221 30.02 165.057 30.076 164.861 30.076H162.576C162.408 30.076 162.243 30.02 162.131 29.908Z" fill="black"/>
<path d="M170.456 28.7121C169.258 27.6001 168.645 26.0721 168.564 24.1281L168.536 23.0441L168.564 21.9601C168.648 20.0161 169.262 18.4881 170.456 17.3761C171.654 16.2641 173.242 15.7361 175.218 15.7361C176.637 15.7361 177.835 15.9881 178.81 16.4881C179.784 16.9881 180.537 17.6001 181.01 18.3521C181.483 19.0761 181.736 19.7681 181.792 20.4361C181.82 20.6041 181.736 20.7681 181.623 20.9081C181.483 21.0481 181.318 21.1041 181.15 21.1041H178.753C178.557 21.1041 178.421 21.0481 178.336 20.9921C178.224 20.9081 178.14 20.7681 178.06 20.5761C177.783 19.8801 177.419 19.3521 176.974 19.0481C176.529 18.7441 175.971 18.5761 175.274 18.5761C174.356 18.5761 173.631 18.8801 173.102 19.4641C172.573 20.0481 172.296 20.9361 172.268 22.1321L172.24 23.1321L172.268 24.0201C172.352 26.3841 173.354 27.5761 175.274 27.5761C175.971 27.5761 176.557 27.4081 177.002 27.1041C177.446 26.8001 177.783 26.3001 178.06 25.5761C178.144 25.3801 178.256 25.2441 178.336 25.1601C178.449 25.0761 178.589 25.0481 178.753 25.0481H181.15C181.318 25.0481 181.483 25.1041 181.623 25.2441C181.763 25.3841 181.82 25.5201 181.792 25.7161C181.763 26.3561 181.515 27.0241 181.038 27.7441C180.565 28.4681 179.84 29.0761 178.866 29.6081C177.891 30.1361 176.665 30.3881 175.218 30.3881C173.214 30.3601 171.627 29.8041 170.456 28.7201" fill="black"/>
<path d="M112.196 13.732H116.541C116.709 13.732 116.874 13.676 117.014 13.536C117.154 13.396 117.21 13.26 117.21 13.036V11.48C117.21 11.284 117.154 11.12 117.042 11.008C116.93 10.896 116.765 10.84 116.569 10.84H112.28C109.551 10.84 107.879 11.812 107.238 13.732H112.196Z" fill="black"/>
<path d="M26.4747 11.016C24.5748 11.016 23.0276 9.47199 23.0276 7.57599C23.0276 5.67999 24.5748 4.13599 26.4747 4.13599C28.3746 4.13599 29.9218 5.67999 29.9218 7.57599C29.9218 9.47199 28.3746 11.016 26.4747 11.016Z" fill="black"/>
<path d="M26.4747 18.148C26.0498 18.148 25.6329 18.036 25.2642 17.824C24.707 17.5 24.3102 16.98 24.1419 16.36C23.9775 15.74 24.0617 15.088 24.3864 14.532C24.8153 13.792 25.6169 13.332 26.4747 13.332C26.8996 13.332 27.3164 13.444 27.6852 13.656C28.8356 14.324 29.2284 15.8 28.563 16.948C28.1341 17.688 27.3324 18.148 26.4747 18.148Z" fill="black"/>
<path d="M12.618 35.86C10.7181 35.86 9.1709 34.316 9.1709 32.42C9.1709 30.524 10.7181 28.98 12.618 28.98C14.5179 28.98 16.0651 30.524 16.0651 32.42C16.0651 34.316 14.5179 35.86 12.618 35.86Z" fill="black"/>
<path d="M12.6141 26.6679C12.1892 26.6679 11.7724 26.5559 11.4036 26.3439C10.8464 26.0199 10.4496 25.4999 10.2813 24.8799C10.1169 24.2599 10.2011 23.6079 10.5258 23.0519C10.9546 22.3119 11.7563 21.8519 12.6141 21.8519C13.0389 21.8519 13.4558 21.9639 13.8246 22.1759C14.9749 22.8439 15.3678 24.3199 14.7024 25.4679C14.2735 26.2079 13.4719 26.6679 12.6141 26.6679Z" fill="black"/>
<path d="M34.1224 12.732C33.8539 12.732 33.5933 12.66 33.3609 12.524C32.6514 12.104 32.4189 11.188 32.8398 10.484C33.1083 10.036 33.6014 9.75598 34.1264 9.75598C34.395 9.75598 34.6555 9.82798 34.888 9.96398C35.5975 10.384 35.8299 11.3 35.4091 12.004C35.1405 12.452 34.6475 12.732 34.1264 12.732H34.1224Z" fill="black"/>
<path d="M4.96613 30.2439C4.6976 30.2439 4.43706 30.1719 4.20457 30.0359C3.85985 29.8319 3.61936 29.5079 3.51915 29.1239C3.41895 28.7399 3.47907 28.3359 3.68349 27.9959C3.95204 27.5479 4.44506 27.2679 4.96613 27.2679C5.2347 27.2679 5.49524 27.3399 5.72773 27.4759C6.07242 27.6799 6.31291 28.0039 6.41314 28.3879C6.51333 28.7719 6.45322 29.1759 6.2488 29.5159C5.98023 29.9639 5.48724 30.2439 4.96613 30.2439Z" fill="black"/>
<path d="M6.02842 23.4399C4.1285 23.4399 2.5813 21.8959 2.5813 19.9999C2.5813 18.1039 4.1285 16.5599 6.02842 16.5599C7.92835 16.5599 9.47555 18.1039 9.47555 19.9999C9.47555 21.8959 7.92835 23.4399 6.02842 23.4399Z" fill="black"/>
<path d="M12.618 11.016C10.7181 11.016 9.1709 9.47199 9.1709 7.57599C9.1709 5.67999 10.7181 4.13599 12.618 4.13599C14.5179 4.13599 16.0651 5.67999 16.0651 7.57599C16.0651 9.47199 14.5179 11.016 12.618 11.016Z" fill="black"/>
<path d="M12.614 18.148C12.1891 18.148 11.7723 18.036 11.4035 17.824C10.2531 17.156 9.86035 15.68 10.5257 14.532C10.9546 13.792 11.7563 13.332 12.614 13.332C13.0389 13.332 13.4558 13.444 13.8245 13.656C14.9749 14.324 15.3677 15.8 14.7024 16.948C14.2735 17.688 13.4718 18.148 12.614 18.148Z" fill="black"/>
<path d="M4.96613 12.732C4.6976 12.732 4.43706 12.66 4.20457 12.524C3.85985 12.32 3.61936 11.996 3.51915 11.612C3.41895 11.228 3.47907 10.824 3.68349 10.484C3.95204 10.036 4.44506 9.75598 4.97017 9.75598C5.2387 9.75598 5.49924 9.82798 5.73173 9.96398C6.07646 10.168 6.31695 10.492 6.41714 10.876C6.51733 11.26 6.45722 11.664 6.2528 12.004C5.98426 12.452 5.49124 12.732 4.97017 12.732H4.96613Z" fill="black"/>
<path d="M19.5442 14.252C19.1193 14.252 18.7024 14.14 18.3337 13.928C17.1833 13.26 16.7905 11.784 17.4559 10.636C17.8848 9.89603 18.6864 9.43604 19.5442 9.43604C19.9691 9.43604 20.386 9.54804 20.7547 9.76004C21.3119 10.084 21.7087 10.604 21.877 11.224C22.0414 11.844 21.9572 12.496 21.6325 13.052C21.2036 13.792 20.402 14.252 19.5442 14.252Z" fill="black"/>
<path d="M19.5443 4.44402C19.2757 4.44402 19.0152 4.37202 18.7827 4.23602C18.0733 3.81602 17.8408 2.90001 18.2616 2.19601C18.5302 1.74801 19.0232 1.46802 19.5443 1.46802C19.8129 1.46802 20.0734 1.54002 20.3059 1.67602C20.6506 1.88002 20.8911 2.20401 20.9913 2.58801C21.0915 2.97202 21.0314 3.37602 20.827 3.71602C20.5584 4.16402 20.0654 4.44402 19.5403 4.44402H19.5443Z" fill="black"/>
<path d="M33.0602 23.4399C31.1602 23.4399 29.613 21.8959 29.613 19.9999C29.613 18.1039 31.1602 16.5599 33.0602 16.5599C34.9601 16.5599 36.5073 18.1039 36.5073 19.9999C36.5073 21.8959 34.9601 23.4399 33.0602 23.4399Z" fill="black"/>
<path d="M26.4747 35.86C24.5748 35.86 23.0276 34.316 23.0276 32.42C23.0276 30.524 24.5748 28.98 26.4747 28.98C28.3746 28.98 29.9218 30.524 29.9218 32.42C29.9218 34.316 28.3746 35.86 26.4747 35.86Z" fill="black"/>
<path d="M26.4747 26.6679C26.0498 26.6679 25.6329 26.5559 25.2642 26.3439C24.707 26.0199 24.3102 25.4999 24.1419 24.8799C23.9775 24.2599 24.0617 23.6079 24.3864 23.0519C24.8153 22.3119 25.6169 21.8519 26.4747 21.8519C26.8996 21.8519 27.3164 21.9639 27.6852 22.1759C28.2424 22.4999 28.6392 23.0199 28.8075 23.6399C28.9718 24.2599 28.8877 24.9119 28.563 25.4679C28.1341 26.2079 27.3324 26.6679 26.4747 26.6679Z" fill="black"/>
<path d="M34.1224 30.2439C33.8539 30.2439 33.5933 30.1719 33.3609 30.0359C32.6514 29.6159 32.4189 28.6999 32.8398 27.9959C33.1083 27.5479 33.6014 27.2679 34.1264 27.2679C34.395 27.2679 34.6555 27.3399 34.888 27.4759C35.2327 27.6799 35.4732 28.0039 35.5734 28.3879C35.6736 28.7719 35.6135 29.1759 35.4091 29.5159C35.1405 29.9639 34.6475 30.2439 34.1264 30.2439H34.1224Z" fill="black"/>
<path d="M19.5445 30.564C19.1196 30.564 18.7027 30.452 18.334 30.24C17.7768 29.916 17.38 29.396 17.2117 28.776C17.0473 28.156 17.1315 27.504 17.4562 26.948C17.8851 26.208 18.6867 25.748 19.5445 25.748C19.9694 25.748 20.3862 25.86 20.755 26.072C21.3121 26.396 21.709 26.916 21.8773 27.536C22.0417 28.156 21.9575 28.808 21.6328 29.364C21.2039 30.104 20.4023 30.564 19.5445 30.564Z" fill="black"/>
<path d="M19.5443 38.5361C19.2757 38.5361 19.0152 38.4641 18.7827 38.3281C18.0733 37.9081 17.8408 36.9921 18.2616 36.2881C18.5302 35.8401 19.0232 35.5601 19.5483 35.5601C19.8169 35.5601 20.0774 35.6321 20.3099 35.7681C21.0193 36.1881 21.2518 37.1041 20.831 37.8081C20.5624 38.2561 20.0694 38.5361 19.5443 38.5361Z" fill="black"/>
</g>
<defs>
<clipPath id="clip0_20063_2871">
<rect width="185" height="40" fill="white"/>
</clipPath>
</defs>
</svg>
