<svg width="220" height="40" viewBox="0 0 220 40" fill="none" xmlns="http://www.w3.org/2000/svg">
<path d="M20.8296 19.3917V25.871C20.8296 26.6794 20.8787 27.2136 20.9768 27.4735C21.0923 27.768 21.2338 27.9759 21.4013 28.0972C21.5745 28.2184 21.843 28.305 22.2069 28.357C22.4956 28.3974 22.64 28.4696 22.64 28.5736C22.64 28.7122 22.5505 28.7815 22.3714 28.7815C22.2848 28.7815 22.1751 28.7728 22.0423 28.7555C21.8633 28.7324 21.5572 28.7208 21.1241 28.7208L19.8681 28.7035L18.8459 28.7641C18.6785 28.7815 18.5399 28.7901 18.4302 28.7901C18.2742 28.7901 18.1963 28.7295 18.1963 28.6082C18.1963 28.5043 18.2858 28.4379 18.4648 28.409C18.9037 28.3339 19.1866 28.1838 19.3137 27.9586C19.4407 27.7276 19.5043 27.2454 19.5043 26.512V19.0972C19.5043 18.3811 19.4205 17.8989 19.2531 17.6506C19.0914 17.4023 18.742 17.2348 18.2049 17.1482C18.0259 17.1136 17.9335 17.0443 17.9277 16.9403C17.922 16.8133 18.0057 16.7497 18.179 16.7497C18.2252 16.7497 18.2771 16.7526 18.3349 16.7584C18.7564 16.8046 19.3166 16.8277 20.0153 16.8277C20.4427 16.8277 20.8094 16.819 21.1154 16.8017L21.6958 16.7584C21.8055 16.7526 21.8777 16.7497 21.9123 16.7497C22.0683 16.7497 22.1462 16.8046 22.1462 16.9143C22.1462 17.0183 22.0711 17.0962 21.921 17.1482L21.4706 17.3214C21.0432 17.4831 20.8296 18.1732 20.8296 19.3917Z" fill="black"/>
<path d="M27.7425 16.6285C28.3604 16.6285 28.8831 16.718 29.3104 16.897L29.9081 17.1482C29.9601 17.1713 30.012 17.1828 30.064 17.1828C30.1333 17.1828 30.2026 17.154 30.2719 17.0962L30.3932 16.9923C30.4105 16.9692 30.4423 16.9576 30.4884 16.9576C30.6328 16.9519 30.705 17.0933 30.705 17.3821C30.705 17.4802 30.7425 17.7719 30.8176 18.257L30.9562 19.1492C30.9851 19.3397 30.9995 19.4581 30.9995 19.5043C30.9995 19.6833 30.9389 19.7728 30.8176 19.7728C30.7252 19.7728 30.6328 19.6342 30.5404 19.357C30.3325 18.7334 29.9081 18.2194 29.2671 17.8152C28.6319 17.411 27.9216 17.2088 27.1362 17.2088C26.5125 17.2088 25.9899 17.3936 25.5683 17.7632C25.1526 18.127 24.9447 18.5832 24.9447 19.1318C24.9447 19.6169 25.0804 20.0356 25.3518 20.3878C25.5886 20.6881 25.8455 20.9076 26.1227 21.0462C26.4057 21.1848 27.0958 21.436 28.193 21.7998C30.3296 22.4985 31.398 23.6448 31.398 25.2386C31.398 26.3185 31.0053 27.2021 30.2199 27.8893C29.4346 28.5765 28.4269 28.9201 27.1968 28.9201C26.7522 28.9201 26.2613 28.8565 25.7243 28.7295C25.193 28.6024 24.8032 28.4552 24.5549 28.2877C24.4509 28.2184 24.3816 28.1462 24.347 28.0712C24.3123 27.9903 24.2604 27.7882 24.1911 27.4648C24.1795 27.4186 24.1073 27.1559 23.9745 26.6766C23.8244 26.1568 23.7493 25.7872 23.7493 25.5678C23.7493 25.3946 23.807 25.3108 23.9225 25.3166C24.0265 25.3224 24.1189 25.4639 24.1997 25.741C24.4076 26.4571 24.8465 27.0577 25.5164 27.5428C26.1862 28.0279 26.9139 28.2704 27.6992 28.2704C28.4962 28.2704 29.1689 28.0365 29.7175 27.5688C30.2719 27.101 30.5491 26.5322 30.5491 25.8623C30.5491 25.2213 30.295 24.6814 29.7868 24.2425C29.527 24.0173 28.7762 23.6968 27.5347 23.281C26.2527 22.8479 25.3431 22.3686 24.8061 21.8431C24.2748 21.3176 24.0092 20.6362 24.0092 19.7988C24.0092 18.8633 24.3556 18.101 25.0486 17.512C25.7474 16.923 26.6453 16.6285 27.7425 16.6285Z" fill="black"/>
<path d="M43.5516 23.7054V19.2185C43.5516 18.4966 43.4476 17.974 43.2397 17.6506C43.0318 17.3214 42.6796 17.1338 42.1829 17.0876C42.0155 17.0702 41.9317 17.0067 41.9317 16.897C41.9317 16.77 41.9895 16.7093 42.105 16.7151C42.232 16.7209 42.4168 16.744 42.6594 16.7844C42.8788 16.819 43.1415 16.8364 43.4476 16.8364C44.0944 16.8364 44.4928 16.8277 44.643 16.8104C44.8451 16.7931 44.9721 16.7844 45.0241 16.7844C45.1338 16.7844 45.1887 16.8364 45.1887 16.9403C45.1887 17.0269 45.1281 17.0962 45.0068 17.1482C44.6545 17.2926 44.4264 17.4947 44.3225 17.7545C44.2185 18.0144 44.1666 18.5053 44.1666 19.2271V23.5149C44.1666 25.0914 43.8518 26.3041 43.2224 27.153C42.8239 27.69 42.2522 28.1203 41.5073 28.4436C40.7681 28.7613 39.977 28.9201 39.1339 28.9201C38.1521 28.9201 37.2686 28.7295 36.4832 28.3484C35.6979 27.9672 35.1233 27.4504 34.7595 26.7978C34.3495 26.0471 34.1445 25.0683 34.1445 23.8614V19.461L34.1271 18.9673C34.1271 18.3494 34.0405 17.9249 33.8673 17.6939C33.6998 17.4571 33.3591 17.3012 32.8451 17.2262C32.6892 17.2031 32.6113 17.1424 32.6113 17.0443C32.6113 16.9057 32.721 16.8364 32.9404 16.8364C33.0848 16.8364 33.284 16.8421 33.5381 16.8537C33.8037 16.871 33.9972 16.8797 34.1185 16.8797L34.7855 16.871H35.4438C35.5131 16.871 35.6748 16.8595 35.9289 16.8364C36.1425 16.819 36.2898 16.8104 36.3706 16.8104C36.5035 16.8104 36.5699 16.8566 36.5699 16.949C36.5699 17.0587 36.4775 17.1309 36.2927 17.1655C35.9577 17.2406 35.7325 17.3879 35.617 17.6073C35.5073 17.821 35.4524 18.2079 35.4524 18.768L35.4698 19.3397V23.7054C35.4698 25.1953 35.7008 26.2579 36.1627 26.8931C36.8153 27.794 37.9096 28.2444 39.4457 28.2444C40.8201 28.2444 41.848 27.8691 42.5294 27.1183C43.2108 26.3618 43.5516 25.2242 43.5516 23.7054Z" fill="black"/>
<path d="M52.2489 24.1559H49.1132C48.6859 24.1559 48.4203 24.1905 48.3163 24.2598C48.2124 24.3291 48.0738 24.5601 47.9005 24.9528L47.3375 26.2261C47.0834 26.8094 46.9564 27.2425 46.9564 27.5255C46.9564 27.7969 47.0228 27.9932 47.1556 28.1145C47.2942 28.2357 47.5627 28.3397 47.9612 28.4263C48.1344 28.461 48.2239 28.5303 48.2297 28.6342C48.2355 28.7324 48.1546 28.7815 47.9872 28.7815C47.9236 28.7815 47.8255 28.7786 47.6926 28.7728L46.8611 28.7295C46.5839 28.7179 46.2634 28.7122 45.8996 28.7122C45.7321 28.7122 45.6022 28.7151 45.5098 28.7208C45.2153 28.7439 45.0536 28.7555 45.0247 28.7555C44.8688 28.7555 44.7908 28.7035 44.7908 28.5996C44.7908 28.5072 44.8399 28.4465 44.9381 28.4177L45.2586 28.3224C45.3741 28.2877 45.53 28.1491 45.7263 27.9066C45.9227 27.6583 46.0844 27.4013 46.2114 27.1357L46.4626 26.564L50.915 16.6804C50.99 16.5072 51.0738 16.4206 51.1662 16.4206C51.2586 16.4206 51.3365 16.5043 51.4 16.6718L55.1248 26.2001L55.3153 26.6679C55.5868 27.3666 55.812 27.8026 55.991 27.9759C56.17 28.1434 56.5338 28.2762 57.0824 28.3743C57.2614 28.409 57.3481 28.4812 57.3423 28.5909C57.3365 28.6891 57.2557 28.7382 57.0997 28.7382C57.0478 28.7382 56.938 28.7324 56.7706 28.7208C56.4703 28.692 55.9361 28.6775 55.1681 28.6775C54.3654 28.6775 53.863 28.6948 53.6609 28.7295C53.5396 28.7526 53.4501 28.7641 53.3923 28.7641C53.2422 28.7641 53.1671 28.7035 53.1671 28.5822C53.1671 28.4898 53.2393 28.4292 53.3837 28.4003L53.6522 28.3397C53.9409 28.2819 54.0853 28.0856 54.0853 27.7507C54.0853 27.4446 53.9092 26.8354 53.5569 25.923L53.1238 24.7796C53.0025 24.4619 52.9073 24.28 52.838 24.2338C52.7687 24.1819 52.5723 24.1559 52.2489 24.1559ZM52.3529 22.7699L50.9929 19.3397L50.9236 19.1578C50.8543 18.973 50.7793 18.8777 50.6984 18.872C50.658 18.8662 50.6118 18.9211 50.5598 19.0365L48.8707 22.7873C48.7956 22.949 48.7581 23.0558 48.7581 23.1078C48.7581 23.2579 48.8909 23.333 49.1565 23.333L49.3904 23.3416H52.0064C52.2951 23.3416 52.4395 23.2695 52.4395 23.1251C52.4395 23.0847 52.4251 23.0182 52.3962 22.9259L52.3529 22.7699Z" fill="black"/>
<path d="M60.7038 26.3474L60.7124 26.6506C60.7124 27.3435 60.7788 27.7536 60.9117 27.8806C61.0445 28.0076 61.4776 28.0712 62.211 28.0712C63.2909 28.0712 64.2264 27.9441 65.0175 27.69C65.8144 27.4302 66.3226 27.0895 66.5421 26.6679C66.6229 26.512 66.7038 26.434 66.7846 26.434C66.877 26.434 66.9203 26.4918 66.9145 26.6073C66.8914 26.9884 66.7038 27.4071 66.3515 27.8633C65.8549 28.4927 65.0493 28.8074 63.9348 28.8074C63.75 28.8074 63.5363 28.7988 63.2938 28.7815L62.3582 28.7122C61.8096 28.6717 61.2293 28.6515 60.6171 28.6515C59.9069 28.6515 59.3121 28.6862 58.8327 28.7555C58.6306 28.7844 58.4689 28.8017 58.3477 28.8074C58.2033 28.8132 58.1311 28.7613 58.1311 28.6515C58.1311 28.5591 58.2091 28.4898 58.365 28.4436C58.7635 28.3224 59.0291 28.1462 59.1619 27.9152C59.3005 27.6785 59.3698 27.2829 59.3698 26.7285L59.3785 26.3301V18.5861C59.3785 17.8181 59.0666 17.3705 58.443 17.2435L58.0532 17.1655C57.9146 17.1367 57.8453 17.0789 57.8453 16.9923C57.8453 16.8595 57.9434 16.7931 58.1398 16.7931C58.2726 16.7931 58.4545 16.8046 58.6855 16.8277C59.0782 16.8623 59.5199 16.8797 60.0108 16.8797C60.5421 16.8797 61.0243 16.8652 61.4574 16.8364C61.6768 16.8248 61.801 16.819 61.8299 16.819C61.9684 16.819 62.0377 16.8623 62.0377 16.949C62.0377 17.076 61.954 17.1597 61.7865 17.2002L61.4834 17.2695C60.9636 17.3965 60.7038 17.9134 60.7038 18.82V26.3474Z" fill="black"/>
<path d="M96.6985 16.4206C98.506 16.4206 99.9872 16.9807 101.142 18.101C102.303 19.2156 102.883 20.6448 102.883 22.3888C102.883 24.2367 102.3 25.7526 101.134 26.9364C99.967 28.1203 98.4743 28.7122 96.6552 28.7122C94.7899 28.7122 93.2798 28.1462 92.1249 27.0144C90.9757 25.8825 90.4011 24.3984 90.4011 22.562C90.4011 21.7651 90.5513 20.9769 90.8516 20.1973C91.1576 19.4119 91.5676 18.7565 92.0816 18.231C92.6244 17.6766 93.3116 17.2377 94.1432 16.9143C94.9747 16.5852 95.8265 16.4206 96.6985 16.4206ZM96.1355 16.9836C94.7957 16.9836 93.7303 17.4369 92.9391 18.3436C92.1538 19.2444 91.7611 20.46 91.7611 21.9903C91.7611 23.7401 92.2635 25.2155 93.2683 26.4167C94.2789 27.6178 95.5176 28.2184 96.9844 28.2184C98.3241 28.2184 99.43 27.7305 100.302 26.7545C101.174 25.7728 101.61 24.5312 101.61 23.0298C101.61 21.3031 101.087 19.8652 100.042 18.716C98.9969 17.5611 97.6947 16.9836 96.1355 16.9836Z" fill="black"/>
<path d="M114.661 19.7468C114.17 20.6073 113.844 21.205 113.682 21.5399L112.911 23.1944L112.027 25.0134C111.981 25.1174 111.739 25.6602 111.3 26.6419C111.121 27.0461 110.965 27.3782 110.832 27.6381C110.757 27.794 110.705 27.9037 110.676 27.9672C110.561 28.2386 110.436 28.3743 110.304 28.3743C110.165 28.3743 110.032 28.2329 109.905 27.9499C109.882 27.8979 109.801 27.7391 109.663 27.4735L109.489 27.1097L106.241 20.076L106.042 24.3638C106.025 24.716 106.016 25.4206 106.016 26.4773C106.016 27.4937 106.374 28.0567 107.09 28.1665C107.442 28.2242 107.618 28.3108 107.618 28.4263C107.618 28.5591 107.535 28.6255 107.367 28.6255C107.257 28.6255 107.151 28.6198 107.047 28.6082C106.4 28.5505 105.9 28.5216 105.548 28.5216C105.127 28.5216 104.722 28.5476 104.335 28.5996C104.22 28.6169 104.13 28.6255 104.067 28.6255C103.894 28.6255 103.807 28.562 103.807 28.435C103.807 28.3368 103.876 28.2733 104.015 28.2444C104.437 28.1462 104.731 27.9499 104.898 27.6554C105.066 27.3609 105.167 26.8585 105.202 26.1482L105.323 23.6361C105.41 21.8171 105.453 20.6679 105.453 20.1886C105.453 19.1607 105.317 18.4013 105.046 17.9105C104.774 17.4138 104.321 17.1078 103.686 16.9923C103.513 16.9634 103.426 16.8912 103.426 16.7757C103.426 16.6487 103.498 16.5852 103.642 16.5852C103.694 16.5852 103.79 16.5909 103.928 16.6025C104.009 16.614 104.206 16.6198 104.517 16.6198C104.991 16.6198 105.291 16.614 105.418 16.6025C105.551 16.5852 105.658 16.5765 105.739 16.5765C105.987 16.5765 106.195 16.7584 106.362 17.1222L106.458 17.3214L110.07 25.1087L110.512 26.0009C110.575 26.1511 110.621 26.2261 110.65 26.2261C110.685 26.2261 110.728 26.1713 110.78 26.0615L110.884 25.8277L110.962 25.6544L115.033 16.9403C115.12 16.7555 115.183 16.6429 115.224 16.6025C115.27 16.5563 115.348 16.5332 115.458 16.5332C115.504 16.5332 115.631 16.5447 115.839 16.5678C115.914 16.5736 116.009 16.5765 116.125 16.5765C116.488 16.5765 116.78 16.5649 117 16.5418C117.103 16.5361 117.187 16.5303 117.251 16.5245C117.366 16.5188 117.424 16.5765 117.424 16.6978C117.424 16.8075 117.366 16.8768 117.251 16.9057L116.878 17.0009C116.584 17.0702 116.376 17.2521 116.255 17.5467C116.139 17.8354 116.081 18.3118 116.081 18.9759L116.133 21.0635L116.298 25.767L116.341 26.8585C116.341 27.2973 116.422 27.6121 116.584 27.8026C116.745 27.9932 117.04 28.1203 117.467 28.1838C117.773 28.23 117.926 28.3079 117.926 28.4177C117.926 28.5331 117.82 28.5909 117.606 28.5909C117.542 28.5909 117.47 28.588 117.389 28.5822L116.714 28.5129C116.488 28.4898 116.246 28.4783 115.986 28.4783C115.807 28.4783 115.524 28.4898 115.137 28.5129C114.537 28.5418 114.19 28.5562 114.098 28.5562C113.93 28.5562 113.846 28.5043 113.846 28.4003C113.846 28.3079 113.919 28.2415 114.063 28.2011C114.404 28.1087 114.632 27.9586 114.747 27.7507C114.863 27.5428 114.921 27.179 114.921 26.6592L114.886 25.2473L114.661 19.7468Z" fill="black"/>
<path d="M121.579 17.9624V21.3927L121.587 21.5572V21.7824C121.61 21.9384 121.775 22.0163 122.081 22.0163L122.826 22.0337L123.112 22.025L124.134 22.0077C124.665 22.0077 125.052 21.9297 125.295 21.7738C125.537 21.6121 125.69 21.3378 125.754 20.9509C125.777 20.8123 125.835 20.743 125.927 20.743C126.037 20.743 126.086 20.8325 126.074 21.0115L126.022 21.8691C126.017 21.9788 126.014 22.1549 126.014 22.3975C126.014 23.0731 126.025 23.5033 126.048 23.6881C126.06 23.7978 126.066 23.8787 126.066 23.9307C126.066 24.0693 126.014 24.1386 125.91 24.1386C125.8 24.1386 125.713 23.9971 125.65 23.7141C125.581 23.408 125.506 23.2002 125.425 23.0904C125.344 22.9807 125.208 22.9028 125.018 22.8566C124.631 22.7584 124.062 22.7093 123.311 22.7093C122.618 22.7093 122.168 22.7237 121.96 22.7526C121.758 22.7815 121.645 22.8479 121.622 22.9518C121.593 23.0616 121.579 23.2348 121.579 23.4716V26.6852C121.579 27.1414 121.7 27.5052 121.943 27.7767C122.185 28.0481 122.511 28.1838 122.921 28.1838C123.118 28.1838 123.219 28.2415 123.225 28.357C123.236 28.4898 123.149 28.5562 122.965 28.5562C122.838 28.5562 122.661 28.5447 122.436 28.5216C122.246 28.4985 121.963 28.4869 121.587 28.4869L120.99 28.4783L120.323 28.4869C120.178 28.4869 119.982 28.4985 119.734 28.5216C119.532 28.5331 119.384 28.5418 119.292 28.5476C119.124 28.5534 119.041 28.5014 119.041 28.3917C119.041 28.2993 119.13 28.2329 119.309 28.1924C119.679 28.1116 119.93 27.9557 120.063 27.7247C120.196 27.4937 120.262 27.0952 120.262 26.5293V18.7247C120.262 18.1761 120.173 17.7545 119.994 17.46C119.878 17.2637 119.751 17.1309 119.612 17.0616C119.474 16.9923 119.234 16.9432 118.893 16.9143C118.755 16.9028 118.683 16.8508 118.677 16.7584C118.665 16.6083 118.781 16.5332 119.023 16.5332C119.098 16.5332 119.277 16.5476 119.56 16.5765C120.074 16.6285 120.943 16.6545 122.168 16.6545C123.259 16.6545 123.961 16.6458 124.273 16.6285L125.477 16.5678C125.996 16.5447 126.331 16.5188 126.481 16.4899C126.591 16.4668 126.686 16.4552 126.767 16.4552C126.894 16.4552 126.958 16.5216 126.958 16.6545C126.958 16.7238 126.943 16.819 126.915 16.9403C126.816 17.3157 126.767 17.8181 126.767 18.4475C126.767 18.7132 126.692 18.846 126.542 18.846C126.456 18.846 126.406 18.7738 126.395 18.6294C126.378 18.4504 126.346 18.2685 126.3 18.0837C126.225 17.7892 126.129 17.6015 126.014 17.5207C125.904 17.4341 125.656 17.3734 125.269 17.3388L124.247 17.2348C123.923 17.2059 123.513 17.1915 123.017 17.1915C122.37 17.1915 121.969 17.2348 121.813 17.3214C121.657 17.4023 121.579 17.616 121.579 17.9624Z" fill="black"/>
<path d="M133.607 16.4206C135.415 16.4206 136.896 16.9807 138.051 18.101C139.212 19.2156 139.792 20.6448 139.792 22.3888C139.792 24.2367 139.209 25.7526 138.042 26.9364C136.876 28.1203 135.383 28.7122 133.564 28.7122C131.699 28.7122 130.189 28.1462 129.034 27.0144C127.885 25.8825 127.31 24.3984 127.31 22.562C127.31 21.7651 127.46 20.9769 127.76 20.1973C128.066 19.4119 128.476 18.7565 128.99 18.231C129.533 17.6766 130.22 17.2377 131.052 16.9143C131.884 16.5852 132.735 16.4206 133.607 16.4206ZM133.044 16.9836C131.705 16.9836 130.639 17.4369 129.848 18.3436C129.063 19.2444 128.67 20.46 128.67 21.9903C128.67 23.7401 129.172 25.2155 130.177 26.4167C131.188 27.6178 132.426 28.2184 133.893 28.2184C135.233 28.2184 136.339 27.7305 137.211 26.7545C138.083 25.7728 138.519 24.5312 138.519 23.0298C138.519 21.3031 137.996 19.8652 136.951 18.716C135.906 17.5611 134.604 16.9836 133.044 16.9836Z" fill="black"/>
<path d="M146.823 22.5361L149.213 26.0702L149.491 26.486C150.23 27.5716 150.911 28.1347 151.535 28.1751L151.812 28.1924C151.916 28.1982 151.965 28.2386 151.959 28.3137C151.954 28.4003 151.824 28.4783 151.57 28.5476C151.321 28.6169 151.038 28.6515 150.721 28.6515C150.201 28.6515 149.733 28.51 149.317 28.2271C148.907 27.9383 148.489 27.4706 148.061 26.8238L145.905 23.5322L145.783 23.3416C145.645 23.1049 145.419 22.9865 145.108 22.9865H143.956L143.765 23.0211C143.696 23.0616 143.661 23.154 143.661 23.2983V26.0009L143.67 26.3474C143.67 26.844 143.693 27.1847 143.739 27.3695C143.791 27.5486 143.909 27.7102 144.094 27.8546C144.342 28.051 144.727 28.1751 145.246 28.2271C145.454 28.2502 145.561 28.3166 145.567 28.4263C145.578 28.5418 145.483 28.5996 145.281 28.5996C145.2 28.5996 145.03 28.588 144.77 28.5649C144.533 28.5418 144.166 28.5303 143.67 28.5303L142.838 28.5216L142.388 28.5303C142.191 28.5303 141.955 28.5447 141.677 28.5736C141.452 28.5967 141.296 28.6082 141.21 28.6082C141.065 28.6082 140.993 28.5476 140.993 28.4263C140.993 28.3397 141.065 28.2819 141.21 28.2531C141.672 28.1665 141.975 27.9586 142.119 27.6294C142.264 27.2945 142.336 26.639 142.336 25.6631V19.4437L142.318 18.5428C142.318 17.6419 142.004 17.1395 141.374 17.0356L140.967 16.975C140.782 16.9403 140.69 16.871 140.69 16.7671C140.69 16.6458 140.788 16.5852 140.984 16.5852C141.031 16.5852 141.233 16.5967 141.591 16.6198C141.799 16.6371 142.056 16.6458 142.362 16.6458C142.627 16.6458 143.081 16.6256 143.722 16.5852C144.184 16.5563 144.591 16.5418 144.943 16.5418C146.271 16.5418 147.273 16.7931 147.949 17.2955C148.624 17.7921 148.962 18.5341 148.962 19.5216C148.962 20.821 148.249 21.8258 146.823 22.5361ZM144.276 22.3455H145.255C146.011 22.3455 146.606 22.1376 147.039 21.7218C147.472 21.306 147.689 20.7372 147.689 20.0154C147.689 19.178 147.394 18.4908 146.805 17.9538C146.216 17.411 145.466 17.1395 144.553 17.1395C144.213 17.1395 143.976 17.1973 143.843 17.3128C143.716 17.4225 143.652 17.6246 143.652 17.9191L143.661 18.205V21.7218C143.661 21.9932 143.696 22.1665 143.765 22.2415C143.84 22.3108 144.01 22.3455 144.276 22.3455Z" fill="black"/>
<path d="M159.709 17.564H157.275C157.021 17.564 156.859 17.5986 156.79 17.6679C156.726 17.7372 156.695 17.9076 156.695 18.179V26.6679L156.703 27.0057C156.732 27.6814 157.11 28.0827 157.838 28.2098C158.04 28.2444 158.141 28.3108 158.141 28.409C158.141 28.536 158.06 28.5996 157.899 28.5996C157.829 28.5996 157.688 28.5822 157.474 28.5476C157.364 28.5303 157.105 28.5216 156.695 28.5216L156.062 28.5129L155.387 28.5216C155.144 28.5216 154.939 28.5303 154.772 28.5476C154.442 28.5822 154.249 28.5996 154.191 28.5996C154.018 28.5996 153.931 28.536 153.931 28.409C153.931 28.3166 154.027 28.2588 154.217 28.2357C154.662 28.178 154.962 28.0567 155.118 27.8719C155.274 27.6814 155.352 27.3435 155.352 26.8585V18.2743L155.343 18.0491C155.343 17.8412 155.311 17.7084 155.248 17.6506C155.19 17.5929 155.052 17.564 154.832 17.564H152.537C152.069 17.564 151.728 17.6593 151.515 17.8498C151.307 18.0346 151.145 18.3869 151.029 18.9066C150.977 19.1318 150.9 19.2416 150.796 19.2358C150.692 19.23 150.64 19.152 150.64 19.0019C150.64 18.8806 150.674 18.6583 150.744 18.3349C150.83 17.9191 150.874 17.5755 150.874 17.3041C150.874 17.0385 150.902 16.8652 150.96 16.7844C151.024 16.6978 151.154 16.6545 151.35 16.6545H160.67C160.988 16.6545 161.179 16.6891 161.242 16.7584C161.311 16.8277 161.346 17.0327 161.346 17.3734C161.346 17.7141 161.361 17.9624 161.389 18.1184C161.418 18.3147 161.436 18.4562 161.441 18.5428C161.447 18.716 161.387 18.8084 161.259 18.82C161.156 18.8258 161.086 18.7363 161.052 18.5515C160.977 18.1415 160.855 17.8758 160.688 17.7545C160.52 17.6275 160.194 17.564 159.709 17.564Z" fill="black"/>
<path d="M4.99229 14.5958L9.80941 25.6188C9.92619 25.8941 10.0346 26.0275 10.1347 26.0192C10.2181 26.0192 10.3683 25.7815 10.5852 25.306L10.7853 24.8431L13.538 18.3368C14.7225 15.5425 15.3147 13.7449 15.3147 12.9442C15.3147 12.6689 15.2521 12.4771 15.127 12.3686C15.0019 12.2518 14.7475 12.1559 14.3638 12.0808C13.8967 11.9891 13.6673 11.8723 13.6756 11.7305C13.684 11.572 13.8216 11.4928 14.0885 11.4928C14.1469 11.4928 14.2678 11.497 14.4514 11.5053C15.0686 11.5387 15.4398 11.5553 15.5649 11.5553H16.0779L16.641 11.5428H16.9538L18.0173 11.5303C18.1841 11.5303 18.2675 11.6012 18.2675 11.743C18.2675 11.8598 18.1799 11.9474 18.0048 12.0058C17.4042 12.231 16.9496 12.7148 16.641 13.4572L16.3031 14.2704L10.0847 28.8469C9.9095 29.2556 9.73851 29.46 9.57168 29.46C9.39651 29.46 9.21717 29.2515 9.03366 28.8344L2.69008 14.1453C2.38979 13.4697 2.1187 12.9984 1.8768 12.7315C1.6349 12.4645 1.30542 12.2935 0.888352 12.2185C0.454603 12.1351 0.200192 12.0767 0.12512 12.0433C0.0417067 12.0016 0 11.9307 0 11.8306C0 11.6638 0.116779 11.5804 0.350336 11.5804C0.417067 11.5804 0.538016 11.5887 0.713184 11.6054C0.854987 11.6221 1.27622 11.6304 1.9769 11.6304L3.16554 11.6429L4.00384 11.6304C4.17901 11.6304 4.44593 11.6137 4.80461 11.5804C4.97143 11.5637 5.08821 11.5553 5.15494 11.5553C5.38016 11.5553 5.49277 11.6346 5.49277 11.7931C5.49277 11.9098 5.40935 12.0016 5.24253 12.0683C4.90053 12.1935 4.68366 12.3019 4.5919 12.3936C4.50849 12.4771 4.46678 12.6272 4.46678 12.8441C4.46678 13.2028 4.64195 13.7866 4.99229 14.5958Z" fill="black"/>
<path d="M88.0566 12.7892L88.4569 15.7921L88.4945 16.1049L88.4569 16.23C88.4152 16.3051 88.3527 16.3468 88.2693 16.3551C88.1692 16.3635 88.019 16.1883 87.8188 15.8296C86.259 13.0937 84.1445 11.7257 81.4753 11.7257C79.3482 11.7257 77.6716 12.3805 76.4454 13.6901C75.2193 14.9997 74.6062 16.7889 74.6062 19.0577C74.6062 21.6686 75.286 23.8039 76.6456 25.4639C78.0136 27.1154 79.7695 27.9412 81.9132 27.9412C83.1644 27.9412 84.3947 27.6076 85.6042 26.9403C86.8137 26.273 87.652 25.4639 88.1191 24.5129C88.336 24.0709 88.5028 23.8456 88.6196 23.8373C88.7531 23.829 88.8198 23.9082 88.8198 24.075L88.8073 24.2127L88.7572 24.4879L88.4695 26.0144L88.4194 26.2396C88.386 26.4565 88.19 26.6817 87.8314 26.9153C85.9045 28.1414 83.7816 28.7545 81.4627 28.7545C78.7768 28.7545 76.6123 27.9579 74.969 26.3647C73.3258 24.7715 72.5042 22.6737 72.5042 20.0712C72.5042 17.4687 73.355 15.3083 75.0566 13.59C76.7582 11.8633 78.8936 11 81.4627 11C83.2228 11 84.841 11.3962 86.3174 12.1886L86.8179 12.4514L87.0181 12.539L87.2308 12.614C87.2725 12.614 87.335 12.5807 87.4185 12.514C87.602 12.3805 87.7271 12.3138 87.7938 12.3138C87.9273 12.3138 88.0149 12.4722 88.0566 12.7892Z" fill="black"/>
<path d="M178.129 25.6133C180.185 27.3308 181.678 28.1896 182.609 28.1896C182.733 28.1896 182.864 28.1654 183.002 28.1171C183.168 28.0619 183.289 28.0309 183.365 28.024C183.482 28.0171 183.54 28.0688 183.54 28.1792C183.54 28.3516 183.313 28.5206 182.858 28.6862C182.409 28.8517 181.947 28.9345 181.471 28.9345C180.781 28.9345 180.154 28.8034 179.588 28.5413C179.022 28.2792 178.202 27.7343 177.126 26.9066C175.601 28.2585 173.998 28.9345 172.315 28.9345C170.597 28.9345 169.173 28.4413 168.041 27.455C166.917 26.4686 166.355 25.2236 166.355 23.7199C166.355 22.4783 166.79 21.4264 167.659 20.5642C168.135 20.0814 168.804 19.7365 169.666 19.5296C169.052 18.7363 168.745 17.9569 168.745 17.1913C168.745 16.3705 169.052 15.7083 169.666 15.2048C170.287 14.7012 171.101 14.4495 172.108 14.4495C172.618 14.4495 173.153 14.5564 173.711 14.7702L174.198 14.9564L174.301 14.9771C174.356 14.9702 174.429 14.9323 174.518 14.8633C174.587 14.8081 174.646 14.7805 174.694 14.7805C174.88 14.7736 174.974 15.022 174.974 15.5255L175.005 16.0945L175.056 16.9119C175.063 17.0844 175.067 17.1913 175.067 17.2327C175.067 17.3844 174.991 17.4603 174.839 17.4603C174.749 17.4603 174.677 17.3775 174.622 17.212C174.429 16.6464 174.032 16.1428 173.432 15.7014C172.839 15.253 172.256 15.0289 171.683 15.0289C171.201 15.0289 170.787 15.1772 170.442 15.4738C170.097 15.7704 169.924 16.129 169.924 16.5498C169.924 16.943 170.087 17.3913 170.411 17.8948C170.735 18.3984 171.283 19.0502 172.056 19.8503L174.663 22.5404C175.339 23.237 176.298 24.1165 177.54 25.1787C177.898 24.5786 178.078 23.9096 178.078 23.1715C178.078 22.6266 177.971 22.1714 177.757 21.8058C177.543 21.4402 177.253 21.2229 176.888 21.154L176.401 21.0608C176.194 21.0195 176.094 20.9263 176.101 20.7815C176.108 20.6849 176.184 20.6366 176.329 20.6366C176.384 20.6366 176.477 20.647 176.608 20.6677C176.815 20.6953 177.412 20.7091 178.398 20.7091C178.716 20.7091 179.002 20.6953 179.257 20.6677C179.498 20.647 179.671 20.6366 179.774 20.6366C179.898 20.6366 179.964 20.6918 179.971 20.8022C179.978 20.9125 179.885 21.0022 179.692 21.0712C179.471 21.154 179.316 21.2919 179.226 21.485C179.143 21.6782 179.081 22.03 179.04 22.5404C178.936 23.7061 178.633 24.7304 178.129 25.6133ZM176.484 26.41C176.263 26.2168 176.122 26.0892 176.06 26.0271L175.067 25.1891C174.508 24.7062 173.77 23.9992 172.853 23.0681C171.942 22.13 171.225 21.3436 170.7 20.7091C170.273 20.1986 169.911 19.9434 169.614 19.9434C169.152 19.9434 168.693 20.2228 168.238 20.7815C167.769 21.3471 167.534 22.0438 167.534 22.8715C167.534 23.8854 167.935 24.8545 168.735 25.7788C169.831 27.0411 171.232 27.6722 172.935 27.6722C174.349 27.6722 175.532 27.2515 176.484 26.41Z" fill="black"/>
<path d="M211.024 16.4206C212.831 16.4206 214.312 16.9807 215.467 18.101C216.628 19.2156 217.208 20.6448 217.208 22.3888C217.208 24.2367 216.625 25.7526 215.459 26.9364C214.292 28.1203 212.799 28.7122 210.98 28.7122C209.115 28.7122 207.605 28.1462 206.45 27.0144C205.301 25.8825 204.726 24.3984 204.726 22.562C204.726 21.7651 204.876 20.9769 205.177 20.1973C205.483 19.4119 205.893 18.7565 206.407 18.231C206.949 17.6766 207.637 17.2377 208.468 16.9143C209.3 16.5852 210.152 16.4206 211.024 16.4206ZM210.46 16.9836C209.121 16.9836 208.055 17.4369 207.264 18.3436C206.479 19.2444 206.086 20.46 206.086 21.9903C206.086 23.7401 206.589 25.2155 207.593 26.4167C208.604 27.6178 209.843 28.2184 211.309 28.2184C212.649 28.2184 213.755 27.7305 214.627 26.7545C215.499 25.7728 215.935 24.5312 215.935 23.0298C215.935 21.3031 215.412 19.8652 214.367 18.716C213.322 17.5611 212.02 16.9836 210.46 16.9836Z" fill="black"/>
<path d="M218.649 26.4427C218.742 26.4427 218.848 26.5495 218.97 26.7632C219.056 26.9076 219.206 27.0548 219.42 27.205C219.645 27.3666 219.758 27.4995 219.758 27.6034C219.758 27.69 219.651 27.8026 219.437 27.9412C219.224 28.0741 219.071 28.2213 218.978 28.383L218.857 28.5736C218.799 28.6717 218.716 28.7208 218.606 28.7208C218.513 28.7208 218.392 28.614 218.242 28.4003C218.109 28.1982 217.956 28.0452 217.783 27.9412C217.581 27.8142 217.48 27.6958 217.48 27.5861C217.48 27.4879 217.575 27.384 217.766 27.2743C217.956 27.1645 218.129 26.9913 218.285 26.7545C218.418 26.5466 218.539 26.4427 218.649 26.4427Z" fill="black"/>
<path d="M202.382 12.7892L202.782 15.7921L202.82 16.1049L202.782 16.23C202.74 16.3051 202.678 16.3468 202.594 16.3551C202.494 16.3635 202.344 16.1883 202.144 15.8296C200.584 13.0937 198.47 11.7257 195.8 11.7257C193.673 11.7257 191.997 12.3805 190.77 13.6901C189.544 14.9997 188.931 16.7889 188.931 19.0577C188.931 21.6686 189.611 23.8039 190.971 25.4639C192.339 27.1154 194.094 27.9412 196.238 27.9412C197.489 27.9412 198.72 27.6076 199.929 26.9403C201.139 26.273 201.977 25.4639 202.444 24.5129C202.661 24.0709 202.828 23.8456 202.945 23.8373C203.078 23.829 203.145 23.9082 203.145 24.075L203.132 24.2127L203.082 24.4879L202.794 26.0144L202.744 26.2396C202.711 26.4565 202.515 26.6817 202.156 26.9153C200.23 28.1414 198.107 28.7545 195.788 28.7545C193.102 28.7545 190.937 27.9579 189.294 26.3647C187.651 24.7715 186.829 22.6737 186.829 20.0712C186.829 17.4687 187.68 15.3083 189.382 13.59C191.083 11.8633 193.219 11 195.788 11C197.548 11 199.166 11.3962 200.642 12.1886L201.143 12.4514L201.343 12.539L201.556 12.614C201.598 12.614 201.66 12.5807 201.743 12.514C201.927 12.3805 202.052 12.3138 202.119 12.3138C202.252 12.3138 202.34 12.4722 202.382 12.7892Z" fill="black"/>
</svg>
